<?xml version="1.0" encoding="UTF-8" standalone="no"?>
<svg
   xmlns:dc="http://purl.org/dc/elements/1.1/"
   xmlns:cc="http://creativecommons.org/ns#"
   xmlns:rdf="http://www.w3.org/1999/02/22-rdf-syntax-ns#"
   xmlns:svg="http://www.w3.org/2000/svg"
   xmlns="http://www.w3.org/2000/svg"
   xmlns:sodipodi="http://sodipodi.sourceforge.net/DTD/sodipodi-0.dtd"
   xmlns:inkscape="http://www.inkscape.org/namespaces/inkscape"
   version="1.1"
   id="svg833"
   width="484.60403"
   height="233.23666"
   viewBox="0 0 484.60404 233.23667"
   sodipodi:docname="Art^2 Artwork.svg"
   inkscape:version="1.0.1 (3bc2e813f5, 2020-09-07)">
  <metadata
     id="metadata839">
    <rdf:RDF>
      <cc:Work
         rdf:about="">
        <dc:format>image/svg+xml</dc:format>
        <dc:type
           rdf:resource="http://purl.org/dc/dcmitype/StillImage" />
      </cc:Work>
    </rdf:RDF>
  </metadata>
  <defs
     id="defs837" />
  <sodipodi:namedview
     pagecolor="#ffffff"
     bordercolor="#666666"
     borderopacity="1"
     objecttolerance="10"
     gridtolerance="10"
     guidetolerance="10"
     inkscape:pageopacity="0"
     inkscape:pageshadow="2"
     inkscape:window-width="1920"
     inkscape:window-height="1046"
     id="namedview835"
     showgrid="false"
     inkscape:zoom="1.114502"
     inkscape:cx="382.32421"
     inkscape:cy="103.38026"
     inkscape:window-x="-11"
     inkscape:window-y="-11"
     inkscape:window-maximized="1"
     inkscape:current-layer="g841"
     inkscape:document-rotation="0" />
  <g
     inkscape:groupmode="layer"
     inkscape:label="Image"
     id="g841"
     transform="translate(-1839.7294,-886.38815)">
    <g
       id="g847"
       transform="matrix(1.0074933,0,0,1,1314.0379,321.17971)">
      <path
         style="fill:#d0d0d0;stroke-width:0.727273"
         d="m 964.49866,761.80856 c -2.84923,-1.95229 -4.44371,-3.91731 -4.47556,-5.51549 -0.0124,-0.63877 -0.67767,-1.91615 -1.47767,-2.83855 -0.8,-0.9224 -1.45455,-2.07382 -1.45455,-2.55869 0,-1.34167 2.88102,-4.71403 4.0272,-4.71403 0.55687,0 1.33825,-0.60866 1.73636,-1.35251 0.39811,-0.74386 2.29142,-2.03208 4.20742,-2.86269 1.91593,-0.83062 4.09476,-1.96393 4.84175,-2.5184 1.28952,-0.95731 1.29665,-1.12713 0.14065,-3.36262 -2.8568,-5.52437 -15.14771,-7.80546 -34.26145,-6.35862 -2.81942,0.21345 -5.60124,0.55978 -6.18182,0.76967 -0.58058,0.20989 -5.14647,1.02386 -10.14647,1.80873 -5,0.78494 -12.15826,1.96916 -15.9072,2.63164 -8.83884,1.56189 -25.4544,1.12261 -30.27462,-0.80037 -3.68604,-1.47054 -7.29193,-4.60654 -9.88451,-8.59645 -3.41214,-5.25113 -3.9104,-7.56935 -3.2808,-15.26374 0.68444,-8.36384 3.00298,-16.03133 6.32837,-20.92818 1.54749,-2.27875 3.85476,-6.32282 5.12727,-8.98684 2.29658,-4.80791 4.76043,-7.82938 17.78952,-21.81599 3.72619,-4 7.8507,-8.4457 9.16568,-9.87935 2.63767,-2.87577 10.3272,-8.79809 12.50654,-9.63231 2.56087,-0.98027 20.1144,-11.73115 23.56393,-14.43201 1.87622,-1.46902 6.63462,-4.86999 10.57433,-7.55771 8.98043,-6.12667 11.91505,-9.17382 15.02407,-15.60043 2.87251,-5.93787 2.75418,-6.22896 -3.53171,-8.68586 -6.46756,-2.52793 -25.62407,-2.07575 -35.01905,0.82661 -3.12939,0.96673 -8.56779,5.26984 -9.6432,7.63009 -0.74524,1.63574 -1.09448,1.72602 -5.54909,1.43479 -4.68968,-0.30658 -4.8011,-0.36333 -8.26262,-4.2073 -3.30611,-3.67131 -3.48946,-4.0863 -3.17237,-7.18023 0.43804,-4.2753 3.00291,-9.00027 6.22706,-11.47154 8.04022,-6.16277 10.18422,-7.36781 17.49112,-9.83077 7.62895,-2.57152 12.0163,-3.3701 23.11986,-4.20828 6.68378,-0.50454 11.38138,-0.49091 15.22851,0.0442 5.74312,0.7988 15.36901,3.65013 19.83345,5.87495 4.04189,2.01424 11.37593,9.73745 12.58255,13.25019 2.92829,8.52462 3.51534,16.91594 1.57011,22.44265 -1.85964,5.28357 -9.84357,19.40281 -13.00575,23.00029 -4.98356,5.66951 -25.93025,21.04217 -40.056,29.39685 -15.15134,8.9613 -16.50153,10.00097 -27.10582,20.87245 -8.67236,8.89087 -11.03367,11.80699 -14.36363,17.73861 -2.19178,3.90423 -3.98509,7.25877 -3.98509,7.45455 0,0.99881 16.29141,-0.99637 26.90909,-3.29551 7.92792,-1.7167 15.01062,-2.32883 26.60109,-2.29907 10.26632,0.0263 13.16611,0.27651 16.72727,1.44294 2.36938,0.77608 5.93207,1.80273 7.91709,2.28144 5.44407,1.31291 14.0048,5.5128 17.38451,8.52884 9.02545,8.0542 14.40752,22.51477 12.20392,32.78975 -2.49898,11.65244 -11.08043,16.89884 -29.20254,17.85324 -5.53738,0.29163 -6.43883,0.15316 -8.5872,-1.31891 z"
         id="path861"
         sodipodi:nodetypes="sssssssssssssssssssssssssssssssssssssssssssssssssss" />
      <path
         style="fill:#9d9d9d;stroke-width:0.727273"
         d="m 964.72724,760.84238 c -2.64851,-1.61928 -3.65345,-2.81906 -4.36065,-5.20604 -0.29629,-1 -1.04276,-2.39222 -1.65891,-3.09389 -1.5944,-1.81556 -0.13396,-4.68829 3.0624,-6.02378 1.37171,-0.57317 2.69898,-1.37367 2.94945,-1.77898 0.25048,-0.40531 2.20299,-1.56364 4.33899,-2.57411 5.2,-2.46 5.86232,-3.33011 4.51614,-5.93324 -2.844,-5.49978 -8.74465,-7.59862 -22.6656,-8.06196 -8.29265,-0.27607 -11.73367,-0.0546 -18.54545,1.19425 -24.96916,4.57717 -30.77891,5.30873 -41.45455,5.21993 -13.05032,-0.10866 -13.41345,-0.16051 -18.03127,-2.57506 -3.22036,-1.68392 -4.18262,-2.72909 -6.68356,-7.25967 -2.83004,-5.12675 -2.92153,-5.50747 -2.92153,-12.15286 0,-8.50626 2.47011,-17.95163 4.9328,-18.86266 1.03375,-0.38239 1.69658,-1.46683 2.03687,-3.33241 0.27753,-1.52106 1.07273,-3.58374 1.76706,-4.58374 0.6944,-1 2.48945,-4.26296 3.98902,-7.25102 2.73527,-5.45021 5.6136,-8.74877 22.19069,-25.43001 6.79825,-6.84102 10.39738,-9.80252 15.08356,-12.41146 1.7,-0.94645 3.09091,-1.9481 3.09091,-2.22592 0,-0.27782 1.06363,-0.93785 2.36363,-1.46674 3.4667,-1.41036 14.59142,-8.23592 19.19797,-11.77886 2.19709,-1.68979 5.68996,-4.13967 7.76203,-5.44417 10.31891,-6.4966 15.04837,-11.48883 18.95739,-20.01062 1.6768,-3.65554 1.0448,-5.17604 -2.92771,-7.04333 -5.11848,-2.40598 -10.64146,-3.14392 -19.53513,-2.61014 -16.14945,0.96925 -25.14255,3.93439 -29.09091,9.59168 -1.43629,2.05799 -1.49927,2.07303 -5.02713,1.20067 -5.05432,-1.24981 -5.47505,-1.89236 -3.4936,-5.33525 1.62939,-2.83111 1.63215,-2.87574 0.17884,-2.87574 -0.812,0 -1.47629,0.33538 -1.47629,0.74528 0,1.26808 -3.67636,2.30871 -4.81571,1.36312 -1.33062,-1.10429 -1.27636,-3.8848 0.098,-5.02546 0.60531,-0.50233 1.05738,-1.27877 1.00472,-1.72541 -0.4048,-3.43248 2.74713,-7.49239 7.58059,-9.76438 1.71774,-0.80745 3.57185,-2.00872 4.12029,-2.66949 1.2184,-1.46805 4.25411,-3.07716 8.26843,-4.38274 1.65898,-0.53955 4.48451,-1.52062 6.27891,-2.18016 3.79229,-1.39384 17.88226,-3.26985 24.55869,-3.26985 5.57855,0 13.50517,1.57109 22.59266,4.47797 6.92807,2.21613 7.87345,2.8573 11.04065,7.48795 1,1.46206 2.53745,2.95323 3.41651,3.31372 3.64749,1.49577 5.61709,8.20808 5.65309,19.26582 0.0196,5.93865 -0.17564,6.88257 -2.10269,10.18182 -1.16822,2 -3.54138,6.45434 -5.2736,9.89855 -3.90989,7.77403 -7.08262,11.41849 -15.1544,17.40779 -3.47913,2.58151 -8.01004,6.01466 -10.06865,7.62923 -5.37862,4.21835 -13.55368,9.62753 -21.9248,14.50686 -13.90197,8.10313 -16.06531,9.77595 -26.25491,20.3014 -8.33084,8.60549 -10.84422,11.733 -14.29055,17.78267 -2.3,4.03739 -4.18182,7.67741 -4.18182,8.08892 0,1.30561 4.9888,0.82582 22.90909,-2.20329 23.85491,-4.03224 39.98509,-4.38603 48.4792,-1.06332 1.46357,0.57251 5.38175,1.7356 8.7072,2.58465 10.63957,2.71653 15.33513,5.90868 22.30444,15.16309 4.90866,6.5181 7.24516,21.0017 4.08096,25.29617 -0.83565,1.13404 -1.70787,3.47811 -1.93842,5.20916 -0.23054,1.73106 -0.93127,3.71317 -1.55709,4.40473 -3.33418,3.68429 -19.66974,8.32538 -21.10858,5.99724 -0.21716,-0.35128 -1.77193,-0.36539 -3.49753,-0.0313 -4.45621,0.86182 -5.04283,0.8088 -7.47018,-0.67527 z"
         id="path859"
         sodipodi:nodetypes="sssssssscsssssssssssssssssssssssssssssssssssssssssssssssssscss" />
      <path
         style="fill:#6d6d6d;stroke-width:0.727273"
         d="m 977.18346,761.60427 c -0.52465,-0.8488 0.38029,-1.89309 2.45287,-2.83062 1.57026,-0.71025 1.25768,-0.79375 -2.29251,-0.61222 -2.26087,0.11564 -4.48087,0.43906 -4.9333,0.71862 -0.45244,0.27964 -2.61768,0.60815 -4.81171,0.73011 -3.53375,0.19636 -4.15375,0.0124 -5.4304,-1.61055 -0.79266,-1.00771 -1.44117,-2.25243 -1.44117,-2.76603 0,-0.51368 -0.56429,-1.91717 -1.25403,-3.11898 -1.19768,-2.08677 -1.19258,-2.25295 0.11272,-3.69528 0.75171,-0.83062 1.8579,-1.51025 2.45811,-1.51025 0.60022,0 2.10408,-0.76633 3.34182,-1.70291 1.23775,-0.93651 3.06866,-1.91142 4.06866,-2.16626 1,-0.2549 2.73585,-1.20676 3.85745,-2.11534 2,-1.62 2.01775,-1.70095 0.92124,-4.19731 -1.80502,-4.10916 -2.90102,-5.06095 -8.15942,-7.08538 -4.67986,-1.80175 -5.73491,-1.91869 -17.34655,-1.92182 -9.90661,0 -13.80894,0.30662 -19.63636,1.55666 -4,0.85803 -8.90909,1.76719 -10.90909,2.02036 -2,0.25316 -6.41818,0.96967 -9.81818,1.59214 -5.40786,0.99004 -23.86182,1.41557 -29.45455,0.6792 -2.41723,-0.31832 -9.81818,-3.97549 -9.81818,-4.8517 0,-0.45004 -0.92669,-2.18635 -2.05934,-3.85842 -2.86197,-4.22489 -2.9744,-4.6888 -3.08735,-12.73582 -0.10909,-7.77498 0.22218,-8.80798 5.68647,-17.73332 1.52015,-2.48299 2.36182,-4.63233 2.09077,-5.33875 -0.25171,-0.6559 0.17273,-2.06226 0.95309,-3.15817 0.77374,-1.08664 2.58589,-4.32509 4.02698,-7.19655 2.89215,-5.76284 9.1976,-12.71624 10.92887,-12.0519 0.68575,0.26315 3.15506,-1.70277 6.90058,-5.49387 3.20793,-3.24701 5.83266,-6.06135 5.83266,-6.25407 0,-0.19273 -0.49091,-0.35041 -1.09091,-0.35041 -0.6,0 -1.09091,-0.32727 -1.09091,-0.72727 0,-1.04917 2.00015,-0.8967 2.38509,0.18182 0.22538,0.63148 0.86895,0.40938 2.10749,-0.72727 0.98066,-0.9 2.12029,-1.63637 2.53251,-1.63637 1.11244,0 3.2432,-2.58016 2.63389,-3.18947 -0.75476,-0.7548 1.29506,-1.87723 3.45215,-1.8903 1.83098,-0.0111 3.50087,-1.44155 5.03992,-4.31724 0.4451,-0.83164 1.26931,-1.51208 1.83164,-1.51208 0.56233,0 1.22233,-0.32352 1.46669,-0.71894 0.51149,-0.82758 -1.6808,-0.16672 -3.10334,0.93548 -2.08211,1.61332 -1.50626,-0.1819 0.6368,-1.98519 1.55927,-1.31203 2.55716,-1.70953 3.05127,-1.21544 0.98538,0.98542 3.42044,-0.33415 3.42044,-1.85359 0,-0.79235 0.4528,-1.03173 1.45556,-0.76951 0.80051,0.20935 1.29062,0.11376 1.08902,-0.21242 -0.2016,-0.32619 1.73258,-1.91878 4.29818,-3.53909 2.56553,-1.62031 6.41185,-4.35714 8.54734,-6.08184 2.13542,-1.72471 6.5008,-4.7566 9.7008,-6.73755 3.2,-1.98095 7.1944,-5.0162 8.87644,-6.74499 3.40044,-3.49493 8.94175,-12.97572 8.94175,-15.29874 0,-1.72484 -2.58626,-3.7033 -7.27273,-5.56351 -6.42924,-2.55199 -32.196,-1.13447 -38.48386,2.11713 -1.21767,0.62969 -3.93876,2.53082 -6.0469,4.22473 -3.2235,2.59018 -4.26691,3.04393 -6.56291,2.85395 -2.55884,-0.21171 -2.70095,-0.34861 -2.26597,-2.18181 0.2552,-1.07577 0.91106,-2.47261 1.45731,-3.10411 0.54626,-0.6315 0.99324,-2.04841 0.99324,-3.1487 0,-1.87044 -0.15367,-1.96936 -2.36364,-1.52132 -1.3,0.26357 -3.06814,1.31862 -3.92923,2.34458 -0.98866,1.17806 -1.9936,1.70112 -2.72728,1.4196 -1.46225,-0.56114 -1.49665,-2.44215 -0.0705,-3.86807 0.6,-0.6 1.09091,-2.19799 1.09091,-3.5511 0,-2.07201 0.53287,-2.86708 3.37731,-5.03896 1.85752,-1.41832 4.00101,-2.57877 4.76334,-2.57877 0.76226,0 2.53149,-1.11248 3.93149,-2.47218 1.40007,-1.3597 3.59295,-2.86575 4.87309,-3.34678 1.28008,-0.48102 4.18189,-1.66549 6.44837,-2.63214 2.26647,-0.96666 5.86647,-2.07889 8,-2.47164 6.28931,-1.15774 22.52349,-1.9154 25.6973,-1.1993 5.60866,1.26548 11.26575,3.69415 11.08451,4.75873 -0.10843,0.63687 1.03433,1.43952 2.9912,2.10098 1.74168,0.58871 4.14618,2.09539 5.34342,3.34817 1.19724,1.2528 2.3904,2.30115 2.65156,2.3297 1.36233,0.14891 4.47477,2.10838 4.47477,2.81712 0,1.27971 4.00371,3.38179 4.84283,2.54266 2.49382,-2.4938 5.02713,15.89939 3.1304,22.72847 -0.41018,1.47709 -1.88109,4.04442 -3.26865,5.70518 -1.38749,1.66076 -2.52305,3.39769 -2.52335,3.85984 0,1.58033 -4.13556,9.5642 -6.25069,12.07048 -1.16181,1.3766 -5.38509,5.04744 -9.38509,8.1574 -4,3.10997 -8.25454,6.43938 -9.45454,7.39869 -5.49542,4.39315 -15.45447,10.84881 -25.45455,16.50018 -10.56516,5.97073 -11.24632,6.50354 -21.60654,16.90134 -9.26502,9.2986 -15.12073,16.1116 -15.12073,17.59274 0,0.23515 -1.32269,2.60474 -2.93927,5.26573 -1.61666,2.66101 -2.79316,5.21908 -2.61455,5.68461 0.50088,1.30525 4.96699,1.18403 13.07353,-0.35482 16.88902,-3.20604 26.85098,-4.47878 37.33273,-4.76965 8.76531,-0.24323 11.45723,-0.0856 13.09091,0.76648 1.1312,0.58998 2.74218,1.0747 3.58014,1.07717 0.83789,0.002 3.45607,0.65098 5.81818,1.44114 2.36204,0.79016 4.7856,1.44672 5.3856,1.45902 0.6,0.0123 2.04735,0.52112 3.21629,1.1307 1.31855,0.68761 2.29338,0.83642 2.568,0.39204 0.2768,-0.44778 1.77491,-0.25152 3.99629,0.52354 3.92546,1.36963 9.19433,5.99491 12.38946,10.87622 1.1128,1.7 2.27222,3.09091 2.57651,3.09091 0.30436,0 1.38422,2.07548 2.39971,4.61219 3.02355,7.55268 3.53005,17.96999 0.82327,16.9313 -0.7112,-0.27295 -1.06044,0.072 -1.06044,1.04763 0,0.8 -0.47222,1.63571 -1.04931,1.85717 -0.80116,0.30749 -0.9496,1.24494 -0.62749,3.96429 0.2936,2.47912 0.11833,3.92727 -0.57672,4.7648 -1.6707,2.01302 -7.32844,4.15949 -16.7928,6.37105 -1.0755,0.25127 -2.11753,0.19462 -2.31564,-0.12596 z m 9.71091,-5.68327 c 1.60807,-0.64342 2.92378,-1.48888 2.92378,-1.87877 0,-0.38989 -0.24545,-0.58254 -0.54545,-0.42814 -0.3,0.1544 -1.77273,0.84065 -3.27273,1.52494 -1.5,0.68422 -2.72727,1.40335 -2.72727,1.59797 0,0.54916 0.48036,0.44087 3.62167,-0.816 z M 885.35554,669.84037 c -0.40029,-0.40027 -1.69171,1.47515 -1.70808,2.48043 -0.007,0.37645 0.45302,0.0497 1.02029,-0.72613 0.56735,-0.77582 0.8768,-1.56526 0.68779,-1.7543 z m 92.84232,-60.07093 c 0.98356,-2.98026 0.50909,-4.10968 -0.74334,-1.76946 -0.4648,0.86852 -0.65782,1.76644 -0.42888,1.99538 0.22895,0.22893 0.0516,0.85545 -0.39374,1.39225 -0.53673,0.64667 -0.5536,0.97601 -0.0502,0.97601 0.41796,0 1.14516,-1.16738 1.61607,-2.59418 z m 12.34756,-6.13309 c 0,-0.4 -0.14429,-0.72728 -0.32072,-0.72728 -0.17637,0 -0.52298,0.32728 -0.77018,0.72728 -0.2472,0.4 -0.10291,0.72727 0.32072,0.72727 0.42357,0 0.77018,-0.32727 0.77018,-0.72727 z m -12.52981,-6.95407 c -0.24379,-0.24378 -0.83528,0.32116 -1.3144,1.25541 -0.8328,1.6239 -0.81331,1.6434 0.44327,0.44324 0.72291,-0.69048 1.11491,-1.45487 0.87113,-1.69865 z m 9.14443,-3.62276 c -0.23687,-0.61725 -0.58662,-0.96629 -0.77731,-0.77565 -0.19061,0.19064 -0.13091,0.69566 0.1328,1.12227 0.71709,1.16034 1.13629,0.93492 0.64451,-0.34662 z m -3.75403,-4.85348 c -0.52182,-0.52186 -0.86059,-0.5648 -0.86059,-0.10909 0,0.97075 0.86008,1.83083 1.34546,1.34545 0.20669,-0.20666 -0.0116,-0.76302 -0.48487,-1.23636 z m -22.14844,-1.73636 c -0.24167,-0.24167 -0.86894,-0.2675 -1.39396,-0.0574 -0.58015,0.23216 -0.40786,0.4045 0.43942,0.43939 0.76661,0.0316 1.19621,-0.14031 0.95454,-0.38197 z m -56.81542,-1.56061 c 1.4752,-1.94339 1.19382,-2.75331 -0.44218,-1.27272 -1.42465,1.28931 -1.91287,2.54545 -0.98923,2.54545 0.25585,0 0.9,-0.57273 1.43141,-1.27273 z m 53.65898,0.53754 c -0.40436,-0.40434 -3.00618,-1.3657 -5.78181,-2.13633 -4.50771,-1.25152 -5.93979,-1.32129 -13.41026,-0.65333 -4.6,0.4113 -8.63032,1.00115 -8.95629,1.31077 -0.32589,0.30963 4.74684,0.52537 11.27273,0.47943 8.18836,-0.0577 12.31614,0.19134 13.31993,0.80344 1.80938,1.10334 4.61789,1.25817 3.5557,0.19602 z m -67.5557,77.09882 c 0.2472,-0.4 0.59382,-0.72727 0.77018,-0.72727 0.17644,0 0.32073,0.32727 0.32073,0.72727 0,0.4 -0.34662,0.72728 -0.77019,0.72728 -0.42363,0 -0.56792,-0.32728 -0.32072,-0.72728 z m 11.63636,-11.63636 c 0.2472,-0.4 0.59382,-0.72727 0.77018,-0.72727 0.17644,0 0.32073,0.32727 0.32073,0.72727 0,0.4 -0.34662,0.72727 -0.77018,0.72727 -0.42364,0 -0.56793,-0.32727 -0.32073,-0.72727 z m 76.72727,-76.72727 c -0.50502,-0.60854 -0.58378,-1.09091 -0.17811,-1.09091 0.4,0 1.13469,0.49091 1.63266,1.09091 0.50501,0.60854 0.58378,1.09091 0.17811,1.09091 -0.4,0 -1.1347,-0.49091 -1.63266,-1.09091 z m -3.04545,-1.58772 c 0.52501,-0.21008 1.15229,-0.18425 1.39396,0.0574 0.24167,0.24166 -0.18793,0.41355 -0.95455,0.38197 -0.84727,-0.0349 -1.01956,-0.20722 -0.43941,-0.43938 z"
         id="path857"
         sodipodi:nodetypes="ssssssssssssssscsssssssssssssssssssssssssssssssssssssssssssssssssssssssssssssscssssssssssssssssssssssssssssssssssscssssssssssssssssssssssssssssssssssssssssssssssssssssssssssssss" />
      <path
         style="fill:#4e4e4e;stroke-width:0.727273"
         d="m 977.45452,761.14943 c 0,-0.58742 2.91134,-2.00429 7.5896,-3.69367 3.83156,-1.38364 6.43069,-3.3904 5.47556,-4.22771 -0.18582,-0.16291 -1.27927,-0.52247 -2.42989,-0.79905 -1.69367,-0.40713 -2.01106,-0.29208 -1.66706,0.6045 0.60226,1.56931 -5.37731,4.10815 -10.42276,4.42539 -2.2,0.13832 -5.8,0.57527 -8,0.97105 -4.6376,0.83426 -4.76,0.75353 -7.25309,-4.78516 -1.66305,-3.69455 -1.67491,-3.85397 -0.39091,-5.27273 0.72822,-0.80465 1.72495,-1.46298 2.21491,-1.46298 0.49004,0 3.58385,-1.36633 6.87513,-3.03629 l 5.98407,-3.03637 -0.38495,-2.86981 c -1.06385,-7.93186 -11.61781,-11.84317 -30.16465,-11.17914 -5.48429,0.19636 -10.95324,0.67237 -12.15324,1.05783 -7.95512,2.55505 -27.61476,5.34392 -39.63636,5.62276 -9.82742,0.22785 -16.31585,-0.73949 -18.8448,-2.80953 -0.56465,-0.46218 -1.67243,-0.84036 -2.46174,-0.84036 -0.78931,0 -1.71826,-0.57273 -2.06429,-1.27273 -0.89317,-1.80682 -1.88866,-3.49114 -3.54604,-6 -1.01535,-1.53702 -1.45455,-3.47142 -1.48596,-6.54545 -0.0247,-2.4 -0.18095,-5.67091 -0.34749,-7.26869 -0.2315,-2.21957 0.22712,-3.93565 1.94356,-7.27272 1.23556,-2.40223 2.81047,-5.02223 3.49978,-5.82223 1.46793,-1.70363 4.39789,-7.9127 4.39789,-9.31984 0,-0.53464 0.81818,-1.7407 1.81818,-2.68016 1.84546,-1.73374 2.51382,-3.42486 0.97855,-2.476 -0.53658,0.3316 -0.64153,0.19836 -0.29084,-0.3691 0.30189,-0.48842 0.73498,-0.70191 0.96248,-0.47442 0.5872,0.58722 3.07709,-1.80494 3.07709,-2.95634 0,-0.52773 0.98181,-1.46723 2.18181,-2.08777 1.2,-0.62055 2.18182,-1.45264 2.18182,-1.84909 0,-0.39646 1.392,-2.10624 3.09331,-3.79951 1.70138,-1.69327 3.94946,-4.06049 4.99578,-5.26049 2.28502,-2.62058 8.83288,-8.65129 12.53848,-11.54817 2.54021,-1.98585 10.49578,-6.99729 11.10807,-6.99729 0.15774,0 1.99985,-1.10987 4.09374,-2.46637 2.09382,-1.3565 5.58306,-3.41209 7.75389,-4.56798 4.00226,-2.13107 5.51128,-3.87474 3.35339,-3.87474 -0.65157,0 -1.96808,0.78347 -2.9256,1.74105 -0.9576,0.95758 -1.91666,1.56548 -2.1312,1.35091 -0.21462,-0.21458 -0.80713,-0.0511 -1.3168,0.36327 -0.50968,0.41437 -2.23579,1.47785 -3.83579,2.36328 l -2.90909,1.60988 1.81818,-1.95952 c 1,-1.07773 2.8,-2.4306 4,-3.00637 2.2243,-1.06724 2.64117,-1.31235 8.36364,-4.91787 6.85898,-4.32154 9.13709,-5.87589 10.54545,-7.19507 0.8,-0.74935 3.91717,-2.93487 6.92699,-4.85672 5.69731,-3.63781 7.79847,-5.5553 6.98203,-6.37169 -0.264,-0.26403 0.45673,-1.4834 1.6016,-2.70969 1.14495,-1.2263 3.4416,-4.20749 5.10371,-6.62487 3.88786,-5.65446 4.16291,-9.39683 0.86967,-11.83163 -1.18378,-0.87523 -2.55832,-1.59132 -3.05454,-1.59132 -0.69164,0 -0.70255,-0.19967 -0.0466,-0.85554 0.65586,-0.65588 1.20008,-0.54376 2.33171,0.48038 1.96262,1.77614 2.56277,1.00661 1.21455,-1.55726 -1.46451,-2.785 -4.17666,-4.98565 -5.8144,-4.7179 -1.09782,0.17947 -1.24306,-0.0859 -0.80422,-1.46871 0.43855,-1.38168 0.35178,-1.54085 -0.47833,-0.87776 -1.09432,0.87419 -1.17556,0.8697 -7.304,-0.40387 -4.34429,-0.90278 -17.93338,-0.10083 -24.60451,1.452 -4.02589,0.93713 -8.01454,3.86987 -8.01454,5.89291 0,1.32109 -0.15666,1.38664 -1.27273,0.53241 -0.7,-0.53579 -1.02654,-0.68424 -0.72567,-0.32988 0.30087,0.35435 -0.0167,1.26721 -0.70575,2.02859 -1.21025,1.33728 -1.12829,1.33523 2.41222,-0.0603 2.01578,-0.79454 5.69586,-1.84416 8.17804,-2.3325 2.48211,-0.48833 4.71949,-1.22208 4.97193,-1.63056 0.29621,-0.47929 -0.35491,-0.57991 -1.83586,-0.28372 -1.26218,0.25245 -2.29491,0.18272 -2.29491,-0.15495 0,-0.69192 4.22858,-1.51143 7.86109,-1.52351 1.32364,-0.004 2.23142,0.27537 2.01738,0.62173 -0.21403,0.34636 -1.17687,0.47917 -2.13949,0.29515 -0.96269,-0.18402 -1.97163,0.0235 -2.24211,0.46117 -0.53301,0.86248 0.33244,0.95069 8.86677,0.90369 2.9,-0.016 5.27272,0.28048 5.27272,0.65879 0,0.37831 -1.71818,0.72197 -3.81818,0.76371 -8.89294,0.17673 -15.81651,1.0918 -20.18181,2.66734 -3.12495,1.12786 -10.29215,5.85201 -11.264,7.42443 -0.31288,0.50627 -0.9243,0.49723 -1.90597,-0.0281 -1.05389,-0.56399 -1.31527,-1.20481 -0.96509,-2.3656 0.59047,-1.95722 3.90698,-5.59207 5.1024,-5.59207 0.87411,0 2.05993,-2.12422 1.49898,-2.68519 -0.16232,-0.16235 -1.48909,0.3754 -2.94836,1.19501 -3.44342,1.93408 -3.75869,1.87977 -2.27076,-0.3911 1.45832,-2.22572 0.93469,-3.18224 -0.87913,-1.60588 -0.7024,0.61049 -2.15193,1.31748 -3.22109,1.57109 -1.06917,0.2536 -2.9648,1.3201 -4.21258,2.36999 -1.24771,1.04989 -2.47339,1.70403 -2.72379,1.45366 -0.80414,-0.80413 1.44546,-4.09531 3.78939,-5.54395 2.58371,-1.59683 4.38909,-4.48253 3.78661,-6.05256 -0.28385,-0.73965 0.26102,-1.19333 1.80364,-1.50185 1.21571,-0.24314 3.23702,-1.53039 4.49185,-2.86057 2.53739,-2.68973 5.98888,-4.48117 10.09971,-5.24208 1.5,-0.27765 2.72728,-0.76013 2.72728,-1.07218 0,-1.40711 6.13403,-2.78555 14.54545,-3.26865 5,-0.28716 10.23636,-0.62662 11.63636,-0.75434 1.4,-0.12773 4.46059,0.21346 6.80124,0.75821 4.5024,1.04783 6.83491,2.3324 2.86335,1.57686 -3.28546,-0.62501 -3.67084,0.66773 -0.51004,1.71088 1.44233,0.47602 3.49076,1.31856 4.55214,1.87232 1.06131,0.55375 2.42059,1.03057 3.02059,1.05959 1.47032,0.0711 7.44269,4.46387 7.88392,5.79872 0.2976,0.90021 0.16946,0.9154 -0.8216,0.0974 -0.64589,-0.53303 -1.70931,-0.8603 -2.36327,-0.72728 -0.99644,0.20269 -0.88444,0.59537 0.69142,2.4237 1.03425,1.2 1.88087,1.74396 1.88138,1.2088 6.5e-4,-0.74035 0.73993,-0.85026 3.09178,-0.45964 1.7,0.28236 3.2,0.80204 3.33331,1.15484 0.13338,0.3528 0.66196,0.64145 1.17469,0.64145 0.51273,0 1.76429,0.65455 2.78138,1.45455 1.01702,0.8 2.33564,1.45454 2.93019,1.45454 0.62829,0 1.09243,0.68541 1.10814,1.63637 0.0407,2.46819 0.62356,5.29472 1.40604,6.81869 0.38487,0.74972 0.55127,2.5452 0.36974,3.98995 -0.31054,2.47135 -0.43156,2.57897 -2.04509,1.81818 -1.50182,-0.70815 -1.68909,-1.24185 -1.50669,-4.29445 0.11455,-1.91719 -0.0647,-3.65469 -0.39898,-3.8611 -0.33404,-0.20642 -0.60727,-0.95031 -0.60727,-1.65311 0,-1.43575 -4.70037,-5.90907 -6.20902,-5.90907 -0.53782,0 -1.18015,-0.32728 -1.42735,-0.72728 -0.2472,-0.4 -0.73302,-0.72727 -1.07949,-0.72727 -0.95127,0 3.86058,7.23799 4.82422,7.2566 1.66335,0.0321 3.79324,5.63483 4.15236,10.92269 0.19513,2.87324 0.52088,5.39019 0.72393,5.59321 0.20298,0.20303 0.79775,-0.31727 1.32175,-1.15622 0.52392,-0.83896 1.20109,-1.52537 1.50487,-1.52537 1.21033,0 0.42204,2.22704 -2.09796,5.92692 -1.45768,2.14019 -3.7843,6.34581 -5.17019,9.34581 -1.38596,3 -3.2736,6.27272 -4.19483,7.27272 -5.13971,5.57944 -10.06422,10.0107 -15.0544,13.54635 -3.08829,2.18818 -5.81847,4.30748 -6.06691,4.70955 -0.53535,0.86613 -10.35636,7.25745 -17.04516,11.09263 -5.83273,3.34435 -6.19499,3.56075 -13.81819,8.25597 -4.75861,2.93087 -8.38821,6.1146 -15.76545,13.82875 -8.68014,9.07662 -13.31702,14.66075 -13.33033,16.0536 0,0.28223 -1.4776,2.79754 -3.2776,5.58957 -1.79992,2.79203 -3.16305,5.41021 -3.02916,5.81818 0.44073,1.3425 7.1,1.2178 15.68451,-0.29371 7.83403,-1.37936 15.26902,-2.58053 20.99076,-3.39118 1.34531,-0.1906 2.36364,-0.0142 2.36364,0.40953 0,0.40942 0.49091,0.7444 1.09091,0.7444 0.6,0 1.09091,-0.49091 1.09091,-1.09091 0,-1.37504 0.66872,-1.37143 3.4552,0.0186 1.78836,0.89213 2.89105,0.96008 5.62785,0.34675 1.87207,-0.41953 4.93055,-0.5693 6.79673,-0.3328 1.86611,0.23649 4.37476,0.53405 5.57476,0.66122 1.2,0.12719 2.46226,0.26856 2.80509,0.31417 0.34277,0.0456 0.43491,0.57383 0.20466,1.17383 -0.25957,0.67631 0,1.09091 0.69236,1.09091 0.65142,0 0.89738,-0.34561 0.59462,-0.83553 -0.59375,-0.96071 6.76233,-0.23109 8.04873,0.79831 0.41003,0.3281 1.86879,0.83708 3.24174,1.13106 1.37295,0.294 3.55069,1.12677 4.83942,1.85061 1.28873,0.72385 2.49825,1.16099 2.68778,0.97144 0.1896,-0.18955 2.18458,0.52651 4.43331,1.59124 2.70334,1.27997 4.08865,2.37315 4.08865,3.22644 0,0.80072 0.7576,1.48071 1.99593,1.79152 2.75026,0.69026 3.82226,1.72414 3.82226,3.6863 0,3.09277 0.68581,4.00782 2.26865,3.02712 1.76567,-1.09395 2.23913,-0.4298 4.25913,5.97488 1.81245,5.74632 2.00505,12.42298 0.35847,12.42298 -0.61251,0 -1.30211,0.49091 -1.53236,1.09091 -0.23346,0.6085 -1.31462,1.0909 -2.4448,1.0909 -2.13622,0 -2.90909,1.07622 -2.90909,4.05091 0,1.38146 0.34472,1.7136 1.63636,1.57688 1.47476,-0.15615 1.61898,0.10989 1.46007,2.69396 -0.1688,2.74611 -1.61542,5.596 -1.664,3.27825 -0.0167,-0.78632 -0.21062,-0.73083 -0.76342,0.21819 -0.40771,0.7 -1.33949,1.27272 -2.07061,1.27272 -0.7312,0 -1.7368,0.49091 -2.23477,1.09091 -0.49796,0.6 -1.54138,1.09091 -2.31869,1.09091 -0.77731,0 -1.96451,0.28422 -2.63818,0.63156 -1.52713,0.78735 -6.67949,1.74786 -6.67949,1.24517 z M 941.09088,652.36362 c 0.94015,-0.60757 0.92095,-0.70654 -0.13891,-0.71614 -0.67636,-0.006 -1.43207,0.31614 -1.67927,0.71614 -0.56887,0.92043 0.39389,0.92043 1.81818,0 z m 13.81265,-11.9961 c 2.55317,-1.79786 4.82619,-3.5227 5.05113,-3.83299 0.22495,-0.31029 1.39077,-1.01169 2.59077,-1.55867 l 2.18181,-0.99452 -2.18181,-0.61552 c -2.85004,-0.80404 -4.40226,-0.27625 -8.36364,2.84384 -5.26073,4.14355 -6.5576,5.66908 -5.61804,6.60867 1.17106,1.17102 1.22706,1.14935 6.33978,-2.45081 z m -13.48596,-9.8819 c -0.27934,-0.4519 -1.30327,-0.231 -2.69389,0.58116 -3.42313,1.99924 -3.29287,3.25801 0.16436,1.58767 1.63906,-0.7919 2.77731,-1.76787 2.52953,-2.16883 z m 25.68938,-0.7308 c -2.02051,-0.52208 -2.32152,-0.32706 -1.75876,1.13936 0.36676,0.95584 0.67578,0.99008 1.92407,0.21318 1.47716,-0.91937 1.47607,-0.92841 -0.16531,-1.35254 z m -23.14472,-1.371 c 0.72661,-0.38889 1.50261,-1.17999 1.72443,-1.758 0.32669,-0.85132 0,-0.82062 -1.728,0.16162 -2.96633,1.68762 -2.96298,3.18405 0,1.59638 z m 24.03774,-0.73836 c 0,-0.39498 1.22887,-1.49391 2.73084,-2.44206 1.50203,-0.94816 3.19367,-2.58863 3.75927,-3.64549 0.5656,-1.05686 1.43338,-1.92157 1.92836,-1.92157 0.56517,0 0.74648,-0.58664 0.48742,-1.57721 -0.31905,-1.22012 -0.15433,-1.47818 0.72742,-1.13982 1.29098,0.49541 2.99491,-2.8295 3.05702,-5.96524 0.0298,-1.51143 0.35745,-1.82842 1.73469,-1.67906 1.10363,0.11968 1.58218,-0.13482 1.36763,-0.72728 -0.1816,-0.50126 0.17382,-1.48967 0.78975,-2.19645 1.01833,-1.16853 0.9768,-1.41843 -0.45855,-2.75561 -0.86807,-0.80879 -1.5784,-1.84761 -1.5784,-2.30847 0,-0.46088 0.46648,-0.20267 1.03659,0.57378 0.99825,1.35955 1.06625,1.33406 1.83883,-0.68998 0.64357,-1.68582 0.58233,-2.34477 -0.30931,-3.32999 -0.61134,-0.67556 -1.11156,-1.77525 -1.11156,-2.44375 0,-0.6685 -0.32727,-1.21546 -0.72727,-1.21546 -0.71178,0 -1.00509,1.38668 -0.78415,3.70684 0.0611,0.63877 -0.39243,1.57884 -1.0072,2.08906 -0.61476,0.51021 -1.11774,1.21769 -1.11774,1.57217 0,0.35449 -0.98182,1.99989 -2.18182,3.65644 -1.2,1.65655 -2.18182,3.43832 -2.18182,3.95948 0,1.50866 -1.61971,4.65237 -2.39695,4.65237 -0.70414,0 -4.1485,3.38119 -4.1485,4.07241 0,0.1986 -1.14546,2.15173 -2.54546,4.34028 -2.87367,4.49228 -2.97963,4.79917 -1.45454,4.21395 0.69076,-0.26508 1.09091,0.01 1.09091,0.7501 0,0.6428 0.32727,1.16872 0.72727,1.16872 0.4,0 0.72727,-0.32317 0.72727,-0.71816 z m -0.72727,-1.96288 c 0,-0.37253 0.48051,-1.3126 1.06778,-2.08905 0.89702,-1.18601 1.07149,-1.22247 1.09091,-0.22805 0.0124,0.65102 -0.46778,1.59109 -1.06778,2.08905 -0.6,0.49795 -1.09091,0.60058 -1.09091,0.22805 z m -3.98269,-3.31896 1.14552,-2.36364 -1.49047,1.71693 c -0.81978,0.94432 -1.49054,2.00796 -1.49054,2.36364 0,1.27141 0.70821,0.60892 1.83549,-1.71693 z m -0.25448,-10.05912 c 0.93048,-1.23251 2.61622,-3.15191 3.74619,-4.26533 1.12996,-1.11342 1.99112,-2.47773 1.91381,-3.0318 -0.2776,-1.98872 0.0495,-2.82557 1.10393,-2.82557 1.49331,0 3.004,-3.29804 3.58124,-7.81818 0.41403,-3.24223 0.30894,-3.81818 -0.69651,-3.81818 -0.6512,0 -1.3552,-0.65455 -1.56444,-1.45455 -0.20916,-0.8 -0.83309,-1.45454 -1.3864,-1.45454 -1.29476,0 -1.2752,0.82079 0.0618,2.58826 0.58727,0.77646 1.07818,2.05534 1.09091,2.84197 0.0313,1.93252 -2.20058,7.66067 -2.9848,7.66067 -0.3456,0 -0.62844,0.61954 -0.62844,1.37674 0,0.75721 -0.49091,1.56511 -1.09091,1.79536 -0.6,0.23024 -1.0909,0.75124 -1.0909,1.15779 0,1.5987 -4.55884,8.0344 -5.69877,8.04488 -1.0472,0.01 -1.06327,0.10616 -0.11942,0.71614 1.62299,1.04886 1.91804,0.93019 3.76284,-1.51366 z m 5.89855,0.12872 c 1.392,-2.35646 1.58894,-3.27542 0.56647,-2.64352 -0.9248,0.57158 -2.97382,4.75574 -2.32894,4.75574 0.28312,0 1.07621,-0.9505 1.76247,-2.11222 z m 19.42953,-3.02162 c 0,-0.37639 -0.32728,-0.68435 -0.72728,-0.68435 -0.4,0 -0.72727,0.51023 -0.72727,1.13384 0,0.6236 0.32727,0.93156 0.72727,0.68435 0.4,-0.24722 0.72728,-0.75744 0.72728,-1.13384 z m -13.2288,-4.55875 c 0.12414,-1.46907 0.50014,-2.67105 0.83563,-2.67105 0.33549,0 1.23986,-1.22727 2.00982,-2.72727 1.42276,-2.77184 1.50895,-8.90909 0.12516,-8.90909 -0.35803,0 -0.6509,-0.81819 -0.6509,-1.81819 0,-1 -0.34044,-1.81818 -0.75644,-1.81818 -0.46669,0 -0.69098,1.90583 -0.58553,4.97553 0.14342,4.17257 -0.15345,5.63879 -1.83971,9.08536 -1.28043,2.61709 -1.83782,4.65468 -1.53469,5.60996 0.72698,2.29048 2.14335,1.26979 2.39666,-1.72707 z m -6.67979,-20.51322 c -0.44596,-1.16226 -2.63687,-1.48762 -2.63687,-0.3916 0,0.37144 0.55811,1.23344 1.24029,1.91559 1.32997,1.32997 2.14888,0.43638 1.39658,-1.52399 z m -52.45505,0.38762 c 0.2472,-0.4 0.12218,-0.72727 -0.27782,-0.72727 -0.4,0 -0.92952,0.32727 -1.17672,0.72727 -0.2472,0.4 -0.12219,0.72728 0.27781,0.72728 0.4,0 0.92953,-0.32728 1.17673,-0.72728 z m 4.40647,-2.58311 c 1.35673,-1.08459 1.34088,-1.10974 -0.40647,-0.64553 -2.24385,0.59614 -3.64,1.7741 -2.10262,1.7741 0.60349,0 1.73259,-0.50786 2.50909,-1.12857 z m 44.3208,-0.32598 c -0.2472,-0.4 -0.94036,-0.72727 -1.54036,-0.72727 -0.6,0 -0.88865,0.32727 -0.64145,0.72727 0.2472,0.4 0.94036,0.72728 1.54036,0.72728 0.6,0 0.88865,-0.32728 0.64145,-0.72728 z m 19.17149,128.71548 -1.71694,-1.46632 2,0.85579 c 1.1,0.47069 2,1.13054 2,1.46634 0,0.90757 -0.38909,0.76171 -2.28306,-0.85581 z m -105.3533,-33.28269 c 0,-1.53829 1.428,-4.5237 2.16378,-4.5237 1.27978,0 0.81513,2.62048 -0.70924,4 -0.8,0.72399 -1.45454,0.95966 -1.45454,0.5237 z m 62.18181,-52.26823 c 2.73411,-2.66382 6.1744,-4.86894 6.72975,-4.31358 0.232,0.23196 0.28538,0.51718 0.11876,0.63382 -1.2272,0.85882 -7.03447,4.63991 -7.9256,5.16034 -0.60763,0.35483 -0.12291,-0.31144 1.07709,-1.48058 z m 18.18182,-35.89183 c -0.2472,-0.4 0.0801,-0.72727 0.72727,-0.72727 0.6472,0 0.97448,0.32727 0.72728,0.72727 -0.2472,0.4 -0.57448,0.72727 -0.72728,0.72727 -0.1528,0 -0.48007,-0.32727 -0.72727,-0.72727 z m -38.54545,-0.72727 c 0.2472,-0.4 0.77673,-0.72727 1.17673,-0.72727 0.4,0 0.52501,0.32727 0.27781,0.72727 -0.2472,0.4 -0.77672,0.72727 -1.17672,0.72727 -0.4,0 -0.52502,-0.32727 -0.27782,-0.72727 z m 29.12014,-0.0473 c 0.26328,-0.42599 1.34618,-0.71859 2.40655,-0.65022 2.92982,0.18892 3.53374,-0.0623 1.92785,-0.80203 -1.44225,-0.66433 -1.44232,-0.66843 -0.009,-0.48599 0.79541,0.1012 1.55578,0.75297 1.68967,1.44837 0.20305,1.05407 -0.31687,1.26438 -3.12546,1.26438 -2.19781,0 -3.20254,-0.26925 -2.89025,-0.77451 z m -25.65178,-1.18403 c 0.70764,-0.18439 1.68946,-0.17227 2.18182,0.027 0.49244,0.19922 -0.0865,0.35008 -1.28655,0.33526 -1.2,-0.0148 -1.60283,-0.17782 -0.89527,-0.36221 z m 15.42109,-1.64606 c 0.23644,-0.38253 0.91026,-0.51115 1.49746,-0.28583 1.50334,0.5769 1.32618,0.98134 -0.42982,0.98134 -0.82364,0 -1.30407,-0.31298 -1.06764,-0.69551 z m 9.83782,-0.0747 c 0,-0.4236 0.32727,-0.56792 0.72727,-0.32071 0.4,0.24722 0.72728,0.5938 0.72728,0.7702 0,0.17639 -0.32728,0.32071 -0.72728,0.32071 -0.4,0 -0.72727,-0.34659 -0.72727,-0.7702 z"
         id="path855"
         sodipodi:nodetypes="ssssssssssscssssssssssssssssssssssssssssssscsssssssssssssssssssssssssssssssssssssssssssssssssssssssssssssssssssssssssssssssssssssssssssscsssssssssssssssssssssssssssssssssssssssssssssscsssssssssssscscccssssssssssssssssssssssssssssssssssscssssssssssssssssssssssssssssssssssssssssssssssssssssssssssscsssssssssssssssssssssscsssssccssssssssssssss" />
      <path
         style="fill:#2c2c2c;stroke-width:0.727273"
         d="m 982.18179,759.27266 c 0.2472,-0.4 0.59382,-0.72727 0.77018,-0.72727 0.17644,0 0.32073,0.32727 0.32073,0.72727 0,0.4 -0.34662,0.72728 -0.77018,0.72728 -0.42364,0 -0.56793,-0.32728 -0.32073,-0.72728 z m -18.90909,-1.45454 c -0.66473,-1.07556 0.25709,-2.18182 1.81818,-2.18182 0.7528,0 1.57571,-0.33498 1.8288,-0.74444 0.30051,-0.48632 -0.51738,-0.58814 -2.35905,-0.2936 -2.75731,0.44088 -2.8376,0.3904 -3.66422,-2.3029 -0.88626,-2.88764 -0.24837,-4.65906 1.67767,-4.65906 0.51782,0 3.10058,-1.14545 5.73956,-2.54545 2.63898,-1.4 5.21891,-2.54546 5.73317,-2.54546 1.80967,0 2.51723,-1.49898 1.93207,-4.09353 -0.87826,-3.89403 -3.64851,-7.39003 -6.88589,-8.68967 -1.59884,-0.64182 -3.07156,-1.40603 -3.27273,-1.69818 -0.54683,-0.79416 -14.08836,-2.82167 -14.78923,-2.21433 -0.33295,0.28848 -1.59099,0.0328 -2.79571,-0.56821 -1.95724,-0.97638 -2.30989,-0.97323 -3.31273,0.0296 -0.83462,0.8346 -1.57753,0.94928 -2.89782,0.44733 -0.97644,-0.37125 -3.25302,-0.61912 -5.05898,-0.5508 -2.5896,0.098 -3.40756,0.44459 -3.87011,1.64007 -0.56044,1.44889 -0.61084,1.45515 -1.13985,0.14111 -0.54269,-1.34817 -0.57389,-1.34817 -1.61084,0 -0.77658,1.00975 -1.15127,1.12313 -1.41105,0.42713 -0.26291,-0.70465 -0.61099,-0.6114 -1.35724,0.36364 -0.87484,1.14298 -1.09731,1.17127 -1.7336,0.22036 -0.63644,-0.95114 -0.73135,-0.93924 -0.74109,0.0929 -0.009,0.9224 -1.25571,1.3571 -5.64749,1.96859 -3.1,0.43163 -6.12728,0.77258 -6.72728,0.7576 -1.268,-0.0313 -6.36756,0.56232 -10.53963,1.22734 -4.95156,0.78931 -14.48807,0.79549 -15.80582,0.0102 -0.89229,-0.53163 -1.51193,-0.49025 -2.14545,0.14328 -1.27513,1.27512 -2.15324,1.09905 -1.90459,-0.38182 0.18066,-1.07608 -0.26385,-1.23498 -2.87723,-1.02837 -2.67273,0.21128 -3.09091,0.0502 -3.09091,-1.18792 0,-1.49884 -2.59455,-2.69917 -3.31491,-1.5336 -0.74836,1.21076 -2.53105,0.67752 -3.26713,-0.97738 -0.40029,-0.9 -1.53767,-2.7484 -2.52741,-4.10755 -1.74131,-2.39106 -2.0216,-3.94908 -2.1275,-11.82525 -0.0196,-1.46304 -0.25367,-2.88094 -0.52,-3.15088 -0.61316,-0.62152 1.99797,-6.27952 4.86997,-10.55269 1.20974,-1.8 3.09207,-5.10833 4.18291,-7.35184 1.09076,-2.24352 2.8,-4.96038 3.79825,-6.03747 0.99818,-1.0771 1.81491,-2.12696 1.81491,-2.33304 0,-0.20608 0.87484,-1.52167 1.94407,-2.92352 1.32182,-1.73301 2.36938,-2.43763 3.27273,-2.20139 0.80967,0.21173 1.32865,-0.0421 1.32865,-0.64978 0,-0.54848 0.66371,-1.35244 1.47491,-1.78659 0.8112,-0.43414 1.2824,-1.10081 1.04713,-1.48149 -0.23527,-0.38068 0.33527,-0.98224 1.26778,-1.3368 1.58313,-0.6019 2.78742,-2.31824 3.76022,-5.35891 0.22502,-0.70346 1.31833,-1.64421 2.42953,-2.09056 4.23316,-1.70032 5.29316,-2.36093 5.29316,-3.29877 0,-0.53241 0.49091,-0.96802 1.09091,-0.96802 0.6,0 1.09091,-0.51022 1.09091,-1.13383 0,-0.62361 0.31535,-0.93894 0.70073,-0.70074 0.38545,0.23819 1.40589,-0.27203 2.26771,-1.13384 1.23941,-1.23941 1.36334,-1.69271 0.59301,-2.1688 -0.53563,-0.33104 -0.69309,-0.86513 -0.34989,-1.18688 0.34313,-0.32175 0.77004,-0.17591 0.94859,0.32409 0.55389,1.55085 2.60079,1.08428 2.18683,-0.49849 -0.2128,-0.81379 0.0582,-1.57115 0.64247,-1.79535 0.61717,-0.23683 1.01957,0.0988 1.03368,0.86212 0.0218,1.17071 0.0844,1.16927 0.98923,-0.0228 0.53142,-0.7 1.3392,-1.27273 1.79506,-1.27273 0.45592,0 0.82894,-0.32727 0.82894,-0.72727 0,-0.4 0.73637,-0.75311 1.63637,-0.78469 0.9,-0.0316 1.22727,-0.22249 0.72727,-0.42424 -1.74218,-0.703 -0.9328,-1.8638 0.96713,-1.38694 1.60494,0.40281 1.81294,0.27159 1.43869,-0.90761 -0.36328,-1.14446 0.42,-1.76194 4.61316,-3.63686 2.77789,-1.24209 5.89411,-2.47004 6.92495,-2.72876 1.03083,-0.25872 1.87425,-0.76219 1.87425,-1.11883 0,-0.35663 0.64698,-0.64843 1.43775,-0.64843 0.79083,0 1.9384,-0.76404 2.55032,-1.69786 0.61186,-0.93382 2.01026,-2.15445 3.10764,-2.71249 1.09738,-0.55805 3.00793,-1.75765 4.24567,-2.66578 1.23775,-0.90813 2.56844,-1.65114 2.95709,-1.65114 0.38866,0 1.7168,-1.06364 2.95157,-2.36364 2.9728,-3.13003 6.32625,-5.64599 10.12371,-7.59537 l 3.10785,-1.59538 -2.18996,3.55908 c -1.20444,1.95749 -2.79688,3.75171 -3.53877,3.98717 -0.74182,0.23546 -1.75418,0.91657 -2.24967,1.51358 -0.73193,0.88191 -0.65796,1.26306 0.39418,2.03242 1.23477,0.90287 1.23586,1.03721 0.024,2.88636 -0.69891,1.06668 -1.73556,1.93941 -2.30363,1.93941 -1.77884,0 -4.61804,2.28709 -4.61804,3.72001 0,0.88605 -0.5144,1.3709 -1.45455,1.3709 -0.8,0 -1.45454,0.41218 -1.45454,0.91597 0,0.50378 -0.68677,1.34484 -1.52611,1.86901 -1.0376,0.648 -1.40058,1.4328 -1.13411,2.45192 0.57367,2.19352 -1.44371,4.00245 -3.22378,2.89076 -2.31171,-1.44367 -2.5896,-0.94774 -0.48378,0.86334 l 1.99578,1.71651 -4.1776,2.56068 c -2.29775,1.40838 -5.89862,3.45313 -8.00204,4.54388 -4.28582,2.22251 -5.12902,3.09819 -3.56211,3.69946 0.58815,0.22569 2.40233,-0.43117 4.03164,-1.45969 1.62924,-1.02851 3.44342,-1.87002 4.03149,-1.87002 0.58807,0 1.33098,-0.4427 1.65084,-0.98377 0.31985,-0.54107 3.36341,-2.34305 6.76341,-4.00438 6.0691,-2.96554 14.91157,-9.83115 14.18204,-11.01148 -0.40218,-0.65078 4.84429,-5.09128 6.01542,-5.09128 0.39345,0 1.16451,-0.54183 1.71353,-1.20407 0.54894,-0.66225 3.22436,-2.98078 5.9453,-5.15229 4.09986,-3.27197 4.79644,-4.12984 4.0672,-5.00857 -1.43076,-1.72393 0.37702,-2.98391 1.98051,-1.38039 1.20888,1.20883 1.31819,1.20481 2.26102,-0.0831 0.54495,-0.74436 0.81098,-2.07098 0.59127,-2.94807 -0.50349,-2.01016 0.95593,-5.3144 2.34735,-5.3144 0.71404,0 0.88582,0.40883 0.53476,1.27273 -1.08349,2.66633 -1.68865,5.23265 -1.21861,5.16789 1.2709,-0.1751 1.5685,0.18367 0.84094,1.01393 -0.43818,0.5 -2.41469,2.70374 -4.39236,4.89721 -1.9776,2.19347 -3.59564,4.35631 -3.59564,4.80631 0,0.99374 -4.95549,5.44184 -12.57098,11.28389 -6.22618,4.77627 -8.87462,6.49887 -13.2472,8.61635 -1.6,0.77481 -4.05455,2.27282 -5.45455,3.3289 -1.4,1.05608 -3.2,2.21839 -4,2.58291 -1.55076,0.70662 -2.57294,1.32676 -7.39178,4.48443 -1.67861,1.1 -3.28669,2 -3.57345,2 -0.28669,0 -1.9192,1.14545 -3.62771,2.54545 -1.70851,1.4 -3.42276,2.54546 -3.80945,2.54546 -0.3867,0 -1.28808,0.89999 -2.00313,1.99999 -0.71506,1.1 -4.30938,4.97699 -7.98749,8.61553 -3.67811,3.63855 -7.58,8.13855 -8.67084,10 -1.09091,1.86146 -2.27963,3.38447 -2.6416,3.38447 -0.36203,0 -0.65818,0.61448 -0.65818,1.3655 0,0.75102 -0.49091,1.77291 -1.09091,2.27087 -0.6,0.49795 -1.09091,1.35621 -1.09091,1.90723 0,0.55102 -0.43563,1.00186 -0.968,1.00186 -1.41018,0 -2.82567,3.06768 -2.54625,5.51828 l 0.24152,2.11808 5.09091,-0.0701 c 2.8,-0.0385 8.85455,-0.78757 13.45455,-1.66447 12.48262,-2.37956 12.36363,-2.36829 12.36363,-1.17066 0,0.79664 0.71942,0.9891 2.90888,0.77821 1.59992,-0.1541 3.11352,0.0509 3.36363,0.45561 0.28546,0.46189 0.6744,0.38048 1.04466,-0.21869 0.32451,-0.52498 1.6536,-1.07597 2.9536,-1.22442 2.07462,-0.23691 2.24822,-0.13081 1.41963,0.86759 -1.12741,1.35846 -0.53963,3.33785 0.9912,3.33785 0.67091,0 0.92975,-0.42001 0.6723,-1.09091 -0.32844,-0.85588 0.1984,-1.09091 2.44538,-1.09091 2.31061,0 3.05207,0.35132 3.83709,1.81818 0.98174,1.83436 2.18182,2.43441 2.18182,1.09091 0,-0.4 -0.27062,-0.72727 -0.60131,-0.72727 -0.33077,0 -0.44953,-1.03403 -0.26408,-2.29784 0.27899,-1.90101 0.13164,-2.21894 -0.85323,-1.841 -0.65477,0.25126 -1.19048,0.17624 -1.19048,-0.16668 0,-0.78513 4.86742,-1.73663 5.83251,-1.14017 0.4688,0.28974 0.46131,0.92056 -0.0218,1.82293 -0.58662,1.09608 -0.43746,1.54099 0.7253,2.16327 0.8051,0.43087 1.46379,1.27306 1.46379,1.87154 0,1.66373 1.83323,2.00297 4.12167,0.76271 l 2.06014,-1.11652 -1.8384,-0.0291 c -2.11149,-0.0335 -4.63498,-2.58399 -4.0541,-4.09761 0.64756,-1.68767 2.79818,-1.27576 2.25614,0.43213 -0.41942,1.3215 -0.10793,1.46502 3.40553,1.56911 2.12698,0.063 4.35811,0.0815 4.95811,0.0409 3.29883,-0.2226 12.39963,1.75395 15.15258,3.29091 1.73513,0.96873 3.34545,1.57068 3.57847,1.33768 0.53956,-0.53958 3.07702,1.72543 3.11789,2.78315 0.0422,1.09631 5.01506,4.1828 5.87891,3.64894 1.12349,-0.69436 2.8176,1.17104 2.8176,3.10248 0,2.16905 1.21796,4.59041 2.30902,4.59041 0.44189,0 1.21374,-0.56122 1.71527,-1.24715 0.7912,-1.08202 1.10778,-0.57645 2.39091,3.8182 1.92783,6.60255 2.38883,13.28437 0.85091,12.33389 -0.40371,-0.24945 -2.22007,0.54946 -4.03651,1.77528 -1.81636,1.22589 -3.65345,2.22887 -4.0824,2.22887 -0.48793,0 -0.4296,0.42196 0.15586,1.12742 1.32421,1.59563 -0.8643,3.92931 -2.45048,2.61294 -0.83432,-0.69243 -1.11418,-0.57287 -1.42291,0.60793 -0.21505,0.82218 -0.99127,1.46989 -1.7616,1.46989 -0.75745,0 -1.74232,0.36516 -2.18865,0.81149 -1.86466,1.86466 -5.72007,3.7016 -11.89433,5.6672 -5.25942,1.6744 -7.62843,1.90066 -8.31236,0.79404 z m 7.96894,-2.13156 c 0.23011,-0.37237 0.0858,-0.88262 -0.32072,-1.13382 -0.40655,-0.25128 -0.73913,0.0531 -0.73913,0.67702 0,1.27745 0.43643,1.46552 1.05985,0.4568 z m -37.62043,-43.39875 c -0.24167,-0.24166 -0.86895,-0.26749 -1.39397,-0.0574 -0.58014,0.23216 -0.40785,0.4045 0.43942,0.43939 0.76662,0.0316 1.19622,-0.14031 0.95455,-0.38198 z m 0.4944,-2.36255 c 0.21076,-0.34107 -0.0868,-1.24107 -0.66124,-2 -0.59883,-0.79114 -1.0544,-0.992 -1.06763,-0.47078 -0.0124,0.5 -0.67768,0.90909 -1.47768,0.90909 -0.80807,0 -1.45454,0.48486 -1.45454,1.09091 0,1.18445 3.972,1.58564 4.66109,0.47078 z m 14.248,-0.42785 c 0,-0.1764 -0.32728,-0.52298 -0.72728,-0.7702 -0.4,-0.24721 -0.72727,-0.10289 -0.72727,0.32071 0,0.42361 0.32727,0.7702 0.72727,0.7702 0.4,0 0.72728,-0.14432 0.72728,-0.32071 z m -34.99884,-38.41258 c 2.87942,-3.16579 3.47324,-4.1758 2.45506,-4.1758 -0.36575,0 -1.10284,0.81818 -1.63804,1.81818 -0.5352,1 -1.2744,1.81818 -1.64269,1.81818 -0.75884,0 -3.38713,2.96376 -3.424,3.86111 -0.0385,0.93393 1.40567,-0.19479 4.24967,-3.32167 z m 6.6352,-6.35762 c 0,-0.4 0.49091,-0.72727 1.09091,-0.72727 0.6,0 1.09091,-0.29663 1.09091,-0.65919 0,-1.00672 -2.75491,-0.0644 -3.19956,1.09449 -0.21513,0.56058 -0.0742,1.01925 0.31331,1.01925 0.38741,0 0.70443,-0.32728 0.70443,-0.72728 z m 4.68887,-3.69848 c -0.23418,-0.37888 -0.7357,-0.49729 -1.11461,-0.26312 -0.37891,0.23416 -0.49731,0.73574 -0.26313,1.11463 0.23418,0.37889 0.73571,0.49729 1.11462,0.26313 0.37891,-0.23416 0.49731,-0.73575 0.26312,-1.11464 z m -1.0525,-14.80405 c 0,-0.76762 -1.39571,-1.09011 -1.81084,-0.41842 -0.25127,0.40652 0.0531,0.73913 0.67702,0.73913 0.62356,0 1.13382,-0.14432 1.13382,-0.32071 z m 67.31948,108.47118 c 0.2731,-0.71723 0.67979,-1.12087 0.90371,-0.89701 0.22393,0.22392 4.4e-4,0.81076 -0.49658,1.30414 -0.71825,0.71287 -0.80182,0.62938 -0.40713,-0.40713 z m 0.37426,-3.12014 c 0.0349,-0.84727 0.20727,-1.01956 0.43942,-0.43942 0.21011,0.52502 0.18429,1.15229 -0.0575,1.39396 -0.24167,0.24168 -0.4136,-0.18792 -0.38203,-0.95454 z m -54.60284,-46.07827 c 0,-0.3764 0.32728,-0.88662 0.72728,-1.13384 0.4,-0.24721 0.72727,0.0607 0.72727,0.68435 0,0.62361 -0.32727,1.13384 -0.72727,1.13384 -0.4,0 -0.72728,-0.30796 -0.72728,-0.68435 z m 18.18182,-64.08585 c 0,-0.42361 0.32727,-0.56793 0.72727,-0.32071 0.4,0.24721 0.72728,0.5938 0.72728,0.7702 0,0.17639 -0.32728,0.32071 -0.72728,0.32071 -0.4,0 -0.72727,-0.34659 -0.72727,-0.7702 z m 3.25302,-12.1374 c 0.60669,-2.41745 0.324,-2.13999 2.81833,-2.76602 l 2.06836,-0.51914 -1.70618,2.63283 c -2.08466,3.21674 -3.91855,3.59287 -3.18051,0.65233 z m 12.01971,-2.65095 c 0,-0.15721 0.49091,-0.47421 1.09091,-0.70445 0.6,-0.23024 1.09091,-0.10162 1.09091,0.28582 0,0.38745 -0.49091,0.70445 -1.09091,0.70445 -0.6,0 -1.09091,-0.12862 -1.09091,-0.28582 z m -5.81818,-3.35054 c 0.42814,-0.8 0.94211,-1.45455 1.14211,-1.45455 0.2,0 0.0131,0.65455 -0.41484,1.45455 -0.42815,0.8 -0.94211,1.45454 -1.14211,1.45454 -0.2,0 -0.0131,-0.65454 0.41484,-1.45454 z m -13.81818,-0.72727 c 0.42814,-0.8 1.30858,-1.45455 1.9565,-1.45455 1.03979,0 1.0235,0.17073 -0.13832,1.45455 -0.724,0.8 -1.60444,1.45454 -1.95651,1.45454 -0.35207,0 -0.28982,-0.65454 0.13833,-1.45454 z m 3.27272,-2.9091 c 0.2472,-0.4 0.94037,-0.72727 1.54037,-0.72727 0.6,0 0.88865,0.32727 0.64145,0.72727 -0.2472,0.4 -0.94036,0.72728 -1.54036,0.72728 -0.6,0 -0.88866,-0.32728 -0.64146,-0.72728 z m 3.27273,-1.79259 c 0,-0.61407 0.52276,-1.1165 1.1616,-1.1165 0.63891,0 3.42073,-2.18096 6.18182,-4.84659 5.24632,-5.06486 6.04378,-5.3449 3.50007,-1.22903 -1.40094,2.26674 -5.20334,5.3427 -9.20713,7.44813 -1.36007,0.71518 -1.63636,0.67195 -1.63636,-0.25601 z m 10.90909,-2.08063 c 0,-1.2575 3.30975,-4.35863 4.29353,-4.02289 0.85018,0.29014 -2.55826,4.98702 -3.61898,4.98702 -0.37099,0 -0.67455,-0.43386 -0.67455,-0.96413 z m 14.33418,-2.67008 c 0.20262,-0.77498 0.824,-1.78711 1.3808,-2.2492 0.55673,-0.46208 1.02269,-1.3728 1.03542,-2.02381 0.0124,-0.65103 0.50364,-1.81896 1.09091,-2.59542 1.02465,-1.35471 1.06778,-1.3568 1.06778,-0.0516 0,2.40249 -1.57076,5.79108 -3.28094,7.07805 -1.59455,1.19995 -1.64742,1.1935 -1.29397,-0.15799 z m 3.84764,-10.5476 c 0,-0.6 0.32727,-1.09091 0.72727,-1.09091 0.4,0 0.72727,0.49091 0.72727,1.09091 0,0.6 -0.32727,1.09091 -0.72727,1.09091 -0.4,0 -0.72727,-0.49091 -0.72727,-1.09091 z m -13.81818,-1.17009 c 0,-0.60355 0.50785,-1.73264 1.12858,-2.50909 1.08458,-1.35673 1.10974,-1.3409 0.64553,0.40645 -0.59615,2.24388 -1.77411,3.63999 -1.77411,2.10264 z m -60.72727,-4.28446 c 0.724,-0.8 1.64363,-1.45454 2.04363,-1.45454 0.4,0 0.13491,0.65454 -0.58909,1.45454 -0.724,0.8 -1.64364,1.45455 -2.04364,1.45455 -0.4,0 -0.1349,-0.65455 0.5891,-1.45455 z m 74.25454,0.29091 c -0.25884,-0.6745 -0.30698,-1.39001 -0.10698,-1.59001 0.2,-0.2 0.57542,0.18824 0.83425,0.86274 0.25884,0.6745 0.30698,1.39 0.10698,1.59 -0.2,0.2 -0.57541,-0.18823 -0.83425,-0.86273 z m 4.10909,0.68198 c -0.98924,-0.39917 -1.27513,-3.15471 -0.32727,-3.15471 0.90632,0 2.32727,1.64295 2.32727,2.69091 0,0.98156 -0.45527,1.08712 -2,0.4638 z m -9.85898,-2.89251 c -0.58109,-0.58104 0.0757,-1.71674 0.9928,-1.71674 0.37643,0 0.68436,0.49091 0.68436,1.09091 0,1.12466 -0.85818,1.44487 -1.67716,0.62583 z m -5.86829,-0.84238 c -0.19724,-0.3191 -0.0582,-1.05546 0.3096,-1.63636 0.52167,-0.82462 0.67054,-0.69743 0.67927,0.58018 0.0116,1.6822 -0.35804,2.07686 -0.98887,1.05618 z m 10.21214,0.0953 c -0.26669,-0.26666 -0.48487,-0.82302 -0.48487,-1.23636 0,-0.45571 0.33876,-0.41277 0.86058,0.10909 0.47338,0.47334 0.69157,1.0297 0.48487,1.23636 -0.20669,0.20667 -0.59396,0.15758 -0.86058,-0.10909 z m -3.176,-2.67055 c -0.31985,-0.53547 -1.19636,-1.30836 -1.94771,-1.71754 -0.84872,-0.46218 -1.07171,-0.92591 -0.5888,-1.22436 0.76597,-0.47342 3.77309,2.17682 3.77309,3.32535 0,0.89037 -0.58378,0.70935 -1.23658,-0.38345 z m 7.05477,-0.88752 c 0,-0.62361 0.32727,-0.93156 0.72727,-0.68435 0.4,0.24721 0.72727,0.75744 0.72727,1.13383 0,0.3764 -0.32727,0.68435 -0.72727,0.68435 -0.4,0 -0.72727,-0.51022 -0.72727,-1.13383 z m -84.62735,-2.3101 c 0.85499,-0.76112 2.24909,-2.74541 3.09804,-4.40952 0.84895,-1.66412 2.49338,-3.51683 3.65425,-4.11714 1.16088,-0.60032 2.87586,-2.04829 3.81106,-3.21772 1.29738,-1.62236 2.99294,-2.4707 7.15491,-3.5798 3,-0.79946 7.04691,-1.48957 8.99316,-1.5336 1.94626,-0.044 3.83346,-0.26221 4.19367,-0.48487 1.25411,-0.77508 -0.26647,-1.87374 -1.99345,-1.44031 -1.01898,0.25576 -1.73884,0.11551 -1.73884,-0.33877 0,-0.46361 1.53469,-0.73307 3.81818,-0.6704 2.1,0.0576 6.10909,-0.11538 8.90909,-0.38445 3.10444,-0.29835 4.72604,-0.232 4.15593,0.17003 -0.66334,0.4677 -0.0524,0.92365 2.10197,1.56917 2.29047,0.68623 3.16501,0.70265 3.55803,0.0668 0.68778,-1.11289 6.45957,0.37491 7.00902,1.80673 0.21244,0.55377 0.85433,0.82728 1.42633,0.60779 1.40545,-0.53931 3.20327,1.06177 3.20327,2.85269 0,1.23563 -0.33622,1.38917 -2.21796,1.01282 -2.69644,-0.53929 -2.25768,0.46382 0.8896,2.0339 2.90232,1.44788 2.88938,1.45078 2.39083,-0.53568 -0.3232,-1.28753 0.0102,-1.90298 1.44953,-2.67309 1.69505,-0.90717 2.01091,-0.84845 3.38814,0.62982 1.55019,1.66387 1.32488,3.23185 -0.23956,1.66743 -1.02669,-1.02669 -2.02422,-1.12164 -2.02422,-0.19268 0,1.0496 5.59469,6.60297 6.67026,6.62097 1.4184,0.0237 4.67098,2.70321 4.04327,3.3309 -0.29556,0.2956 -1.2936,-0.17292 -2.21782,-1.04117 -1.74727,-1.64151 -3.4048,-2.07686 -3.4048,-0.89428 0,0.37639 0.32727,0.88662 0.72727,1.13383 1.44437,0.89268 0.73608,2.54546 -1.0909,2.54546 -1.96611,0 -2.30211,-0.67971 -0.9864,-1.9954 1.36225,-1.36229 -3.2491,-4.61193 -9.66422,-6.81037 -4.60313,-1.57747 -5.82735,-1.76991 -6.26655,-0.98504 -0.32785,0.58584 -2.10043,1.04636 -4.43796,1.15302 -3.01789,0.1377 -4.04604,-0.0974 -4.57738,-1.04685 -0.37688,-0.67345 -1.24168,-1.19861 -1.92182,-1.16703 -0.75767,0.0352 -0.88451,0.19947 -0.32749,0.42424 1.77047,0.71438 0.8696,1.51393 -2.16415,1.92085 -1.69032,0.22671 -3.46116,0.0903 -3.93527,-0.30319 -0.57193,-0.47466 -1.02793,-0.4469 -1.35513,0.0825 -0.35665,0.57712 -0.76421,0.57293 -1.4728,-0.0151 -0.72116,-0.5985 -1.37971,-0.59895 -2.49571,-10e-4 -0.83389,0.44625 -1.8509,0.60442 -2.26021,0.35149 -0.40924,-0.25293 -1.18619,-0.093 -1.72655,0.35552 -0.54044,0.44847 -1.2624,0.74312 -1.60451,0.65477 -0.99796,-0.25769 -7.57498,3.12436 -10.01658,5.15072 -1.6672,1.38366 -1.99964,0.70147 -0.50735,-1.04112 1.3744,-1.60491 2.81404,-2.58765 6.62917,-4.52535 l 2.54545,-1.29283 -2.32167,-0.22478 c -2.72436,-0.26374 -10.14713,3.11013 -11.20938,5.09499 -0.38604,0.72138 -1.30487,1.3116 -2.04182,1.3116 -0.73695,0 -1.71731,0.45467 -2.17847,1.01037 -0.46117,0.55571 -1.56487,1.16817 -2.45266,1.36102 -0.88778,0.19286 -2.26872,0.58377 -3.06872,0.86869 -1.37542,0.48985 -1.36997,0.44274 0.0999,-0.86583 z m 53.27273,-11.99045 c 1.23113,0.035 2.40407,-0.20436 2.60654,-0.53194 0.51899,-0.83977 -1.8312,-1.33808 -4.4784,-0.94956 -1.80974,0.26561 -2.16494,0.60465 -1.85898,1.77451 0.26757,1.02309 0.54117,1.18245 0.93528,0.54475 0.3064,-0.49577 1.56436,-0.87276 2.79556,-0.83776 z m -11.55447,-1.65653 c 0,-0.6 -0.30793,-1.09091 -0.68437,-1.09091 -0.91709,0 -1.57389,1.13571 -0.9928,1.71675 0.81898,0.81904 1.67717,0.49883 1.67717,-0.62584 z m 40.72727,12.72728 c 0,-0.4 -0.49091,-0.72728 -1.09091,-0.72728 -0.6,0 -1.09091,-0.48064 -1.09091,-1.06808 0,-0.58744 0.41615,-0.9084 0.92473,-0.71323 1.24225,0.47668 2.93949,3.23586 1.99054,3.23586 -0.40342,0 -0.73345,-0.32727 -0.73345,-0.72727 z m -5.81818,-3.63637 c 0,-0.4 0.32727,-0.72727 0.72727,-0.72727 0.4,0 0.72727,0.32727 0.72727,0.72727 0,0.4 -0.32727,0.72727 -0.72727,0.72727 -0.4,0 -0.72727,-0.32727 -0.72727,-0.72727 z m -27.27273,-15.99997 c 0.2472,-0.4 1.104,-0.72727 1.904,-0.72727 0.8,0 1.25229,0.32727 1.00509,0.72727 -0.2472,0.4 -1.104,0.72728 -1.904,0.72728 -0.8,0 -1.25229,-0.32728 -1.00509,-0.72728 z"
         id="path853"
         sodipodi:nodetypes="ssssscssssssssssssssssssssssssssssssssssssssssssssssssssssssssssssssssssssssssssscssssssssssssscsssssssssssssssssssssssssssssssssssssscsssssssssssssssssssssscsssscsssssssssssssssssccsssssssssssssssssssssssssssssssssssssssssssssssssssssssssssssscsssssssssssssssssssssssssssssssssssssssssssssssssssssssssssssssssssssssssssssssssssssscssssssssssssssssssssssssssssssssssssssssssssssscssssssccssssssssssssssssssssssssss" />
      <path
         style="fill:#171717;stroke-width:0.727273"
         d="m 964.93023,753.05147 c -0.23833,-0.23833 -1.03608,-0.52182 -1.77273,-0.62997 -1.22407,-0.17963 -1.40218,-0.5976 -1.0848,-2.54552 0.1424,-0.87411 4.20931,-1.76102 5.2176,-1.13789 0.55454,0.34276 0.55229,0.75701 -0.008,1.43192 -0.43346,0.52226 -0.69484,1.35222 -0.5808,1.84429 0.22603,0.9755 -1.0728,1.73586 -1.77149,1.03717 z m 5.06974,-0.11789 c -1.1,-0.16662 -1.9896,-0.52669 -1.97687,-0.80008 0.0524,-1.12458 2.0368,-3.04261 3.14792,-3.04261 0.65593,0 1.19259,-0.34931 1.19259,-0.77629 0,-0.4635 0.6304,-0.57622 1.56458,-0.27971 1.24393,0.39483 1.47214,0.25585 1.11374,-0.67826 -0.64574,-1.68262 2.48829,-1.55825 3.95702,0.15702 1.03927,1.21382 1.02713,1.47171 -0.1368,2.90909 -0.7024,0.86749 -1.94174,1.57724 -2.75403,1.57724 -0.8123,0 -1.67913,0.32727 -1.92633,0.72727 -0.2472,0.4 -0.83927,0.67825 -1.31564,0.61833 -0.47643,-0.0596 -1.76618,-0.24531 -2.86618,-0.412 z m 14.14545,-6.16997 c -0.48,-0.48 -0.87272,-1.29818 -0.87272,-1.81818 0,-0.52 -0.38618,-0.94545 -0.85826,-0.94545 -0.47207,0 0.22742,-0.96931 1.55433,-2.15397 1.82836,-1.63236 2.71775,-1.99069 3.67251,-1.47971 1.17949,0.6312 1.16153,0.88262 -0.2816,3.93891 -1.68473,3.568 -1.92269,3.74997 -3.21426,2.4584 z m 7.76844,-7.67272 c -0.0473,-1.5 -0.0356,-3.0072 0.0255,-3.34931 0.0611,-0.34211 -0.24306,-1.04931 -0.67651,-1.57157 -1.16168,-1.39971 0.26378,-1.9112 1.97869,-0.71003 1.16603,0.81672 1.42531,1.66494 1.2264,4.01171 -0.13877,1.63687 -0.44291,3.28443 -0.67586,3.66123 -0.92371,1.49469 -1.79658,0.54568 -1.87825,-2.04203 z m -4.11084,-1.77273 c 0.15833,-0.47498 0.68466,-0.94138 1.16968,-1.03636 0.48502,-0.095 0.54429,-0.007 0.13185,0.19847 -0.41251,0.20414 -0.56502,0.67054 -0.33891,1.03636 0.22611,0.36582 0.0371,0.66517 -0.41971,0.66517 -0.45694,0 -0.70123,-0.38866 -0.54291,-0.86364 z m -9.62123,-7.00436 c 0,-0.87899 1.37978,-1.90371 1.88414,-1.39935 0.18306,0.18306 -0.16596,0.74676 -0.77563,1.25273 -0.6912,0.57367 -1.10851,0.62887 -1.10851,0.14662 z m -94.18182,-0.90655 c -3.5856,-0.81542 -6.18181,-2.04531 -6.18181,-2.9286 0,-0.54065 0.6973,-0.65749 1.99999,-0.33512 1.1,0.27222 3.18102,0.71946 4.62459,0.99387 1.98065,0.37654 2.51592,0.77705 2.18181,1.63247 -0.33032,0.8456 -0.99694,1.00749 -2.62458,0.63738 z m 97.09091,-0.68 c 0,-0.8 0.15214,-1.45454 0.33804,-1.45454 0.18596,0 0.68836,0.65454 1.1165,1.45454 0.62131,1.16095 0.5531,1.45455 -0.33803,1.45455 -0.63164,0 -1.11651,-0.63164 -1.11651,-1.45455 z m 9.11273,0.76262 c -0.2592,-0.41942 -0.28488,-1.06422 -0.0567,-1.43295 0.22785,-0.36865 -1.19695,-1.7143 -3.16626,-2.99035 -1.9693,-1.27605 -3.74247,-2.93941 -3.94043,-3.69634 -0.42982,-1.64382 -2.67629,-1.09611 -2.67629,0.65251 0,0.88666 -0.39964,0.7644 -1.7992,-0.55038 -1.54088,-1.44759 -1.86277,-1.52459 -2.24204,-0.53634 -0.24349,0.63466 -0.90662,0.97594 -1.47353,0.75841 -0.56683,-0.21754 -1.03069,-0.0733 -1.03069,0.32051 0,1.12227 2.28262,2.73291 3.56626,2.51641 0.63854,-0.1077 1.57287,0.46505 2.07629,1.27277 0.76574,1.22872 0.73607,1.46859 -0.18182,1.46859 -0.60342,0 -1.09709,0.33352 -1.09709,0.74116 0,0.41833 -0.75731,0.55105 -1.73884,0.30465 -0.95636,-0.24 -1.95752,-0.0826 -2.22472,0.34982 -0.75731,1.22531 -2.15084,0.94095 -5.05819,-1.032 -1.47352,-1 -3.23738,-1.82019 -3.91963,-1.82266 -0.68226,-0.002 -2.21207,-0.51113 -3.39964,-1.13036 -3.14603,-1.64048 -21.02989,-1.73653 -30.56807,-0.16419 -7.76102,1.27939 -22.63636,1.60144 -23.31411,0.50476 -0.66851,-1.08164 -2.50407,-0.74879 -2.50407,0.45407 0,1.12693 -2.81244,2.62224 -3.81818,2.03009 -0.95469,-0.56214 -0.58778,-1.57497 0.65869,-1.81838 1.12065,-0.21883 1.12058,-0.30443 -2.9e-4,-1.23355 -1.07004,-0.88695 -1.25637,-0.73899 -1.66924,1.32527 l -0.46473,2.32368 -5.53498,-0.50924 c -3.04422,-0.28014 -5.64414,-0.79521 -5.77774,-1.14464 -0.13353,-0.34944 -1.52444,-0.84029 -3.09091,-1.09078 -1.5664,-0.25048 -2.84808,-0.69996 -2.84808,-0.99884 0,-0.29887 -0.9,-0.73301 -2,-0.96474 -2.65781,-0.55991 -5.99999,-3.56601 -5.99999,-5.39668 0,-2.00693 -3.6603,-2.79305 -4.15724,-0.89285 -0.18749,0.71701 -0.96516,1.46691 -1.72822,1.66645 -1.12502,0.29419 -1.38727,-0.0287 -1.38727,-1.70803 0,-1.13894 -0.32727,-2.27307 -0.72727,-2.52029 -1.17775,-0.72787 -0.8379,-1.68506 0.78065,-2.19877 1.02575,-0.32555 1.82407,-0.0505 2.49651,0.86008 0.77389,1.04798 1.18204,1.14797 1.87942,0.46042 1.14211,-1.12599 -0.11018,-2.79269 -2.56051,-3.40768 -3.66284,-0.91931 -2.78095,-8.6589 1.07454,-9.42999 2.07906,-0.41582 3.03862,-2.38009 3.26851,-6.69105 0.13971,-2.62073 2.25433,-6.13846 3.68997,-6.13846 0.55403,0 1.00727,-0.32727 1.00727,-0.72727 0,-0.4 0.52589,-0.72728 1.16873,-0.72728 0.78574,0 1.01832,-0.39194 0.70974,-1.19608 -0.49389,-1.28704 1.41353,-3.89483 2.8488,-3.89483 0.476,0 1.45782,-0.65454 2.18182,-1.45454 0.724,-0.8 1.72102,-1.45455 2.21571,-1.45455 0.49462,0 1.10233,-0.80873 1.3504,-1.79719 0.24807,-0.98845 1.11091,-2.15033 1.91738,-2.58194 0.80647,-0.43162 1.25927,-1.11983 1.00611,-1.52938 -0.45411,-0.7348 2.35244,-4.2733 3.38938,-4.2733 0.29396,0 2.82407,-2.20909 5.62255,-4.90909 6.69541,-6.45992 8.40421,-7.85722 11.03069,-9.01982 1.20727,-0.53439 2.19505,-1.20873 2.19505,-1.49853 0,-0.2898 0.49091,-0.33853 1.09091,-0.10829 0.69076,0.26508 1.09091,-0.01 1.09091,-0.7501 0,-0.6428 0.50458,-1.16872 1.12131,-1.16872 0.61673,0 1.82393,-0.65454 2.68262,-1.45454 0.85869,-0.8 2.15411,-1.45455 2.87869,-1.45455 0.72458,0 1.31738,-0.27474 1.31738,-0.61053 0,-0.73578 3.26647,-2.29856 4.80444,-2.29856 0.6216,0 0.88232,0.3515 0.59985,0.80858 -0.27484,0.44473 -0.0487,1.10549 0.50255,1.46837 0.81767,0.53828 0.74225,0.85813 -0.40946,1.73687 -0.77651,0.5924 -1.84014,1.07709 -2.36364,1.07709 -0.52356,0 -0.95192,0.65454 -0.95192,1.45454 0,0.8 0.32727,1.45455 0.72727,1.45455 0.4,0 0.72727,-0.30495 0.72727,-0.67766 0,-0.37271 0.9,-0.55889 2,-0.41374 1.1,0.14514 2.44917,0.28646 2.99811,0.31402 1.43207,0.0719 -0.2672,2.00467 -3.00902,3.42248 -1.94123,1.00386 -2.20007,0.9848 -3.12072,-0.22977 -1.08851,-1.43602 -1.30444,-2.20777 -1.07171,-3.83076 0.13156,-0.91755 -0.0196,-0.91755 -1.18655,0 -0.73556,0.57848 -1.5528,1.34979 -1.81607,1.71399 -0.64386,0.89061 0.94625,3.3378 2.1688,3.3378 0.53709,0 0.84698,0.38864 0.68865,0.86364 -0.57331,1.71998 -1.95396,1.36422 -3.06829,-0.79061 -1.02116,-1.97471 -1.4752,-2.1948 -4.40625,-2.13597 -1.79731,0.0361 -3.26786,0.35136 -3.26786,0.70063 0,0.34927 0.49091,0.63504 1.09091,0.63504 0.6,0 1.09091,0.29663 1.09091,0.65919 0,0.36255 -0.69833,0.47656 -1.55193,0.25335 -1.14967,-0.30065 -1.4325,-0.14162 -1.09134,0.61354 0.25331,0.56065 0.66254,1.5921 0.90945,2.2921 0.24691,0.7 1.06531,1.27273 1.81862,1.27273 0.75338,0 1.36975,0.26825 1.36975,0.59612 0,0.79157 -3.4512,3.76752 -4.36917,3.76752 -0.39694,0 -0.72174,0.41797 -0.72174,0.92882 0,1.59871 -3.98262,5.37422 -6.09491,5.77803 -1.62058,0.30978 -2.17353,0.0452 -2.80575,-1.34234 -0.90407,-1.98422 -2.37512,-2.26229 -3.02392,-0.57161 -0.58233,1.51757 0.0633,2.47982 1.66451,2.47982 0.70967,0 1.53585,0.24546 1.83585,0.54546 0.3,0.3 0.9,0.54545 1.33331,0.54545 1.7936,0 1.11876,1.7646 -1.96669,5.14274 -1.80066,1.97149 -3.28116,3.99986 -3.29004,4.50748 -0.0102,0.59617 -0.60422,0.77532 -1.67738,0.50597 -2.00094,-0.5022 -5.35447,2.10374 -5.03556,3.91299 0.17971,1.0196 0.10232,1.03993 -0.50633,0.13302 -0.61411,-0.91501 -0.79142,-0.8804 -1.22065,0.23822 -0.30626,0.79792 -0.0545,1.75661 0.64523,2.45623 1.04517,1.04514 1.38444,0.93943 3.80422,-1.18512 2.61367,-2.29484 3.98327,-2.59426 4.51869,-0.9879 0.45062,1.35175 -6.21345,7.53431 -8.92931,8.2842 -1.40269,0.38729 -2.524,1.16637 -2.524,1.75363 0,1.27933 0.85789,1.36245 2.02422,0.19612 1.02116,-1.02111 1.98589,-0.33252 1.23542,0.88176 -0.29418,0.47606 -1.59651,0.71979 -2.98189,0.55806 -1.67986,-0.19611 -2.45957,0.0124 -2.45957,0.65773 0,0.51968 -0.79883,0.94487 -1.77527,0.94487 -2.49076,0 -2.884,1.09353 -0.86822,2.41434 1.53957,1.00878 1.81971,1.00682 2.84648,-0.0199 1.65003,-1.65004 3.43338,-0.66136 3.43338,1.90345 0,1.18895 0.34058,2.37221 0.75687,2.62949 0.41622,0.25727 0.56916,1.05901 0.33985,1.78166 -0.31607,0.99575 0.14939,1.51135 1.92211,2.12932 1.28648,0.44848 2.52451,0.56605 2.75106,0.26126 0.22654,-0.30479 1.55738,-0.58793 2.95738,-0.6292 7.38175,-0.2176 14.13542,-2.04916 13.51527,-3.66527 -0.20829,-0.54283 -0.0851,-0.98697 0.27382,-0.98697 0.35884,0 1.18778,-0.53532 1.84211,-1.1896 0.81076,-0.8108 1.42647,-0.95273 1.93345,-0.44573 0.50699,0.50701 0.49215,0.89949 -0.0465,1.23253 -0.43484,0.26876 -0.79062,0.79661 -0.79062,1.173 0,0.9398 3.89091,0.86613 4.84887,-0.0918 0.55004,-0.55003 0.89942,-0.45493 1.19928,0.32641 0.40967,1.06768 -1.21768,2.01826 -3.87244,2.26191 -0.60335,0.0553 -1.7488,0.49666 -2.54546,0.98063 -1.2789,0.77697 -1.12509,0.85831 1.3147,0.69508 1.51978,-0.10167 2.9925,0.17254 3.27272,0.60936 0.81149,1.26475 3.9848,0.65534 4.58677,-0.88084 0.30131,-0.76902 0.57091,-0.98102 0.59898,-0.47112 0.0284,0.5099 0.86305,1.23579 1.85542,1.61308 1.19927,0.45597 1.66094,1.0596 1.37672,1.80019 -0.23512,0.6128 -0.0654,1.11419 0.37753,1.11419 0.44284,0 0.80509,-0.49091 0.80509,-1.09091 0,-1.30021 2.26095,-1.44816 3.48131,-0.22781 0.66589,0.66594 1.26895,0.4818 2.63986,-0.80614 2.10094,-1.97375 7.90036,-2.58322 10.33949,-1.08661 1.64916,1.01194 2.46989,1.12867 7.35752,1.04648 2.47098,-0.0415 3.09091,0.20161 3.09091,1.21235 0,1.16493 0.0925,1.1718 1.17695,0.0874 1.3864,-1.38635 0.7768,-2.77109 -1.21986,-2.77109 -1.75832,0 -1.85723,-1.22784 -0.13891,-1.72408 2.25571,-0.65144 12.62473,0.67255 17.12342,2.18642 0.88211,0.29685 1.93113,0.6251 2.33113,0.72947 0.4,0.10435 1.46363,0.40797 2.36363,0.6747 1.00953,0.29919 1.63637,0.17388 1.63637,-0.32714 0,-1.52146 1.35251,-0.81845 1.58574,0.82427 0.14059,0.9897 0.816,1.71993 1.70909,1.84784 0.81222,0.11631 1.79404,0.93449 2.18182,1.81818 0.38786,0.88369 1.44153,1.71129 2.34153,1.83911 1.03127,0.14646 1.63636,0.7357 1.63636,1.59344 0,0.74857 0.28953,1.53999 0.64342,1.75869 1.07382,0.66367 1.35942,4.74957 0.38829,5.55547 -0.61992,0.51454 -1.04967,0.51025 -1.37352,-0.0138 z m -18.56728,-2.94444 c 0,-0.4 -0.32727,-0.72727 -0.72727,-0.72727 -0.4,0 -0.72727,0.32727 -0.72727,0.72727 0,0.4 0.32727,0.72728 0.72727,0.72728 0.4,0 0.72727,-0.32728 0.72727,-0.72728 z m -72.63032,-5.16517 c 0.28894,-0.55915 0.70233,-1.58937 0.91869,-2.28937 0.58255,-1.8852 2.99142,-1.54297 3.95011,0.5612 0.66705,1.46407 1.22793,1.76279 2.78102,1.48115 2.68465,-0.4868 3.4712,-1.44774 2.21411,-2.70485 -0.57295,-0.57294 -1.26415,-1.84462 -1.536,-2.82597 -0.41331,-1.49172 -0.36349,-1.57559 0.30378,-0.51153 0.43898,0.7 1.39825,1.27272 2.13178,1.27272 0.76174,0 1.53084,0.7016 1.79367,1.63637 0.40669,1.44656 0.5432,1.49598 1.17687,0.42614 1.00728,-1.70072 0.31273,-3.01789 -2.17127,-4.11743 -4.40538,-1.95001 -10.95774,-1.48344 -7.49316,0.53356 1.79658,1.04594 -0.048,0.98272 -2.38393,-0.0817 -1.64691,-0.75039 -2.02553,-0.69112 -2.64393,0.41382 -0.5125,0.91587 -1.42945,1.22865 -3.16392,1.07923 -3.36248,-0.28971 -3.82349,0.50208 -1.10946,1.90555 1.25026,0.64653 2.10364,1.44977 1.89651,1.78498 -0.65163,1.05429 -4.35163,1.41896 -5.44691,0.53683 -0.82356,-0.66331 -0.92465,-0.63853 -0.47098,0.11545 1.37244,2.28099 8.18116,2.85779 9.25302,0.78386 z m 3.53942,0.0743 c 0,-0.4 -0.51026,-0.72727 -1.13382,-0.72727 -0.62364,0 -0.93156,0.32727 -0.68436,0.72727 0.2472,0.4 0.75745,0.72728 1.13381,0.72728 0.37644,0 0.68437,-0.32728 0.68437,-0.72728 z m 66.18181,-1.09091 c 0,-0.6 -0.32727,-1.0909 -0.72727,-1.0909 -0.4,0 -0.72727,0.4909 -0.72727,1.0909 0,0.6 0.32727,1.09091 0.72727,1.09091 0.4,0 0.72727,-0.49091 0.72727,-1.09091 z m 2.54546,-0.36363 c 0.2472,-0.4 0.10291,-0.72727 -0.32073,-0.72727 -0.42356,0 -0.77018,0.32727 -0.77018,0.72727 0,0.4 0.14429,0.72727 0.32073,0.72727 0.17636,0 0.52298,-0.32727 0.77018,-0.72727 z m -9.09091,-1.09091 c -0.49796,-0.6 -1.23266,-1.09091 -1.63266,-1.09091 -0.40567,0 -0.3269,0.48237 0.17811,1.09091 0.49797,0.6 1.23266,1.09091 1.63266,1.09091 0.40567,0 0.32691,-0.48237 -0.17811,-1.09091 z m 3.63636,-0.40656 c 0,-0.37639 -0.49091,-0.68435 -1.09091,-0.68435 -1.12465,0 -1.44487,0.85815 -0.62581,1.6772 0.58101,0.58104 1.71672,-0.0758 1.71672,-0.99285 z m -8.72727,0.12073 c 0,-0.3572 -0.53716,-0.8556 -1.19375,-1.10755 -0.99818,-0.38304 -1.0432,-0.27661 -0.27461,0.64946 1.04734,1.26199 1.46836,1.39334 1.46836,0.45809 z m 26.18182,-0.0778 c 0,-0.4 -0.32728,-0.72727 -0.72728,-0.72727 -0.4,0 -0.72727,0.32727 -0.72727,0.72727 0,0.4 0.32727,0.72728 0.72727,0.72728 0.4,0 0.72728,-0.32728 0.72728,-0.72728 z m -36.53033,-2.04545 c 0.15833,-0.47501 -0.20298,-0.86364 -0.80298,-0.86364 -0.6,0 -1.20226,-0.33403 -1.33833,-0.74229 -0.15978,-0.47929 -0.95229,-0.41486 -2.2368,0.18182 -2.25774,1.04882 -2.71149,2.37056 -0.62662,1.82534 0.75571,-0.19762 1.81935,-0.0775 2.36364,0.26699 1.20167,0.76052 2.2536,0.49437 2.64109,-0.66822 z m 4.81491,0.2835 c -0.53142,-1.38489 -2.4664,-2.07676 -2.4664,-0.88189 0,1.20606 0.71055,1.91657 1.91658,1.91657 0.5208,0 0.76822,-0.46561 0.54982,-1.03468 z m 22.85127,-0.2297 c -0.13389,-0.6954 -0.89425,-1.34418 -1.68967,-1.44171 -0.79542,-0.0976 -1.03709,0.008 -0.53709,0.23407 0.5,0.22627 0.90909,0.87505 0.90909,1.44171 0,0.56667 0.35127,1.03031 0.78058,1.03031 0.42938,0 0.67106,-0.56897 0.53709,-1.26438 z m -46.40858,-0.19017 c 0,-0.4 -0.32727,-0.72727 -0.72727,-0.72727 -0.4,0 -0.72727,0.32727 -0.72727,0.72727 0,0.4 0.32727,0.72728 0.72727,0.72728 0.4,0 0.72727,-0.32728 0.72727,-0.72728 z m 42.90909,-0.68434 c 0,-1.75174 -1.31862,-2.65158 -2.35985,-1.61038 -0.55317,0.5532 -0.50902,1.1032 0.15243,1.90027 1.27113,1.53155 2.20742,1.40858 2.20742,-0.28989 z m -92.36363,-1.21165 c 0,-0.1572 -0.49091,-0.28582 -1.09091,-0.28582 -0.6,0 -1.09091,0.317 -1.09091,0.70445 0,0.38744 0.49091,0.51606 1.09091,0.28582 0.6,-0.23024 1.09091,-0.54724 1.09091,-0.70445 z m 17.45454,0.0172 c 0,-0.63334 -0.38865,-1.02197 -0.86363,-0.86364 -1.34851,0.44951 -1.57222,2.01515 -0.28786,2.01515 0.63331,0 1.15149,-0.51818 1.15149,-1.15151 z m -23.27272,-6.37357 c 0,-1.44602 2.40349,-3.93209 3.45454,-3.57321 0.5,0.17073 0.90909,-0.0442 0.90909,-0.47747 0,-0.74645 -0.30072,-0.86177 -2.90909,-1.11557 -1.13207,-0.11015 -3.79811,4.56849 -3.17643,5.57437 0.57243,0.9262 1.72189,0.65376 1.72189,-0.40812 z m 8.74785,-18.65677 c 0.86422,-1.66312 0.84167,-1.73306 -0.26516,-0.82004 -0.66546,0.54898 -1.20997,1.50353 -1.20997,2.12122 0,1.3205 0.20808,1.13697 1.47513,-1.30118 z m 5.07033,0.36364 c 0,-0.6 -0.30793,-1.09091 -0.68437,-1.09091 -0.91709,0 -1.57389,1.1357 -0.9928,1.71674 0.81899,0.81904 1.67717,0.49883 1.67717,-0.62583 z m 0,-3.35857 c 0,-0.4 -0.32728,-0.52501 -0.72728,-0.27779 -0.4,0.24721 -0.72727,0.77675 -0.72727,1.17675 0,0.4 0.32727,0.52501 0.72727,0.27779 0.4,-0.24721 0.72728,-0.77675 0.72728,-1.17675 z m 6.31498,-1.50507 c -0.23215,-0.58016 -0.40451,-0.40784 -0.43942,0.4394 -0.0313,0.76666 0.14036,1.19621 0.38204,0.95455 0.24167,-0.24167 0.26749,-0.86895 0.0575,-1.39395 z m -0.31498,-1.0389 c 0.7,-0.24691 1.31367,-0.73803 1.36363,-1.09137 0.16299,-1.15168 1.09928,-3.73506 1.87717,-5.17958 0.15912,-0.29542 -0.18553,-0.35492 -0.76582,-0.13223 -0.58029,0.22268 -1.2712,0.0553 -1.53527,-0.37197 -0.84349,-1.36481 -2.31542,-0.83643 -3.22386,1.15723 -0.57243,1.25642 -0.62676,2.0913 -0.15513,2.38282 0.4579,0.28296 0.47571,0.84471 0.0487,1.52047 -0.9776,1.54588 -0.85338,3.08263 0.20909,2.58734 0.5,-0.23308 1.48182,-0.6258 2.18182,-0.87271 z m 6.36363,-7.4611 c 0,-2.54989 -1.00451,-5.02979 -1.8984,-4.68677 -1.02611,0.39378 -1.4128,3.95133 -0.52581,4.83829 0.70269,0.70274 2.42421,0.59514 2.42421,-0.15152 z m -4.36363,-2.27272 c 0,-0.4 -0.14429,-0.72728 -0.32073,-0.72728 -0.17636,0 -0.52298,0.32728 -0.77018,0.72728 -0.2472,0.4 -0.10291,0.72727 0.32073,0.72727 0.42356,0 0.77018,-0.32727 0.77018,-0.72727 z m 12.36363,-5.43173 c 0,-0.68 0.42255,-0.90594 1.16291,-0.62182 1.02597,0.39369 1.04735,0.24106 0.18182,-1.29555 -0.53956,-0.958 -1.17745,-1.90545 -1.41753,-2.10545 -0.24,-0.2 -0.56727,-0.76224 -0.72727,-1.24942 -0.20865,-0.63543 -0.5992,-0.67117 -1.38174,-0.12645 -0.8248,0.57413 -0.86808,0.84968 -0.17731,1.12972 1.2392,0.50238 0.39047,1.73685 -0.86335,1.25572 -0.54669,-0.2098 -1.21011,-0.0319 -1.47418,0.3954 -0.26407,0.42727 -0.008,0.77685 0.56894,0.77685 0.57695,0 1.22015,0.65455 1.42931,1.45455 0.43673,1.66997 2.6984,1.99389 2.6984,0.38645 z m 2.81593,-5.55034 c -1.81476,-1.14959 -2.336,-0.67853 -0.94727,0.85605 0.88305,0.97576 1.46916,1.20341 1.65592,0.64316 0.15899,-0.47695 -0.15992,-1.15159 -0.70865,-1.49921 z m 2.27498,-1.47062 c 0,-1.3005 0.17455,-1.39872 1.10851,-0.62363 1.46371,1.21478 2.37811,0.24878 1.03004,-1.08812 -0.90829,-0.90071 -1.2792,-0.86331 -2.78858,0.28117 -0.97331,0.73799 -1.51557,1.68473 -1.22982,2.14712 0.83142,1.34522 1.87985,0.94559 1.87985,-0.71654 z m -40,61.5436 c 0,-0.6 0.29229,-1.09091 0.64946,-1.09091 0.35723,0 0.83782,0.49091 1.06807,1.09091 0.25506,0.66451 0,1.0909 -0.64945,1.0909 -0.58742,0 -1.06808,-0.4909 -1.06808,-1.0909 z M 976.48484,712.2424 c -0.26669,-0.26666 -0.48487,-0.82303 -0.48487,-1.23636 0,-0.45571 0.33876,-0.41277 0.86058,0.10909 0.47338,0.47334 0.69157,1.0297 0.48487,1.23636 -0.20669,0.20667 -0.59396,0.15758 -0.86058,-0.10909 z m -18.30305,-3.87879 c -0.2472,-0.4 -0.12218,-0.72727 0.27782,-0.72727 0.4,0 0.92952,0.32727 1.17672,0.72727 0.2472,0.4 0.12219,0.72728 -0.27781,0.72728 -0.4,0 -0.92953,-0.32728 -1.17673,-0.72728 z M 903.2727,683.99998 c 0,-0.6 0.53098,-1.09091 1.17993,-1.09091 0.9664,0 1.01614,0.19745 0.27462,1.09091 -0.49797,0.6 -1.02895,1.09091 -1.17993,1.09091 -0.15106,0 -0.27462,-0.49091 -0.27462,-1.09091 z m 3.95615,-4.07101 c -0.65397,-1.05807 3.26101,-5.0199 4.9605,-5.0199 2.17935,0 1.22269,2.18675 -1.79018,4.09211 -1.74429,1.10309 -2.86022,1.42965 -3.17032,0.92779 z m 12.40749,-11.56535 c -0.2472,-0.4 -0.10291,-0.72728 0.32072,-0.72728 0.42357,0 0.77018,0.32728 0.77018,0.72728 0,0.4 -0.14429,0.72727 -0.32072,0.72727 -0.17637,0 -0.52298,-0.32727 -0.77018,-0.72727 z m 1.45454,-2.18182 c -0.2472,-0.4 -0.12218,-0.72727 0.27782,-0.72727 0.4,0 0.92953,0.32727 1.17673,0.72727 0.2472,0.4 0.12218,0.72727 -0.27782,0.72727 -0.4,0 -0.92953,-0.32727 -1.17673,-0.72727 z m 2.54546,-1.45455 c 0,-0.4 0.30792,-0.72727 0.68436,-0.72727 0.37636,0 0.88662,0.32727 1.13382,0.72727 0.2472,0.4 -0.0604,0.72728 -0.68437,0.72728 -0.62356,0 -1.13381,-0.32728 -1.13381,-0.72728 z m 2.18181,-1.45454 c 0,-0.4 0.49091,-0.72728 1.09091,-0.72728 0.6,0 1.09091,0.32728 1.09091,0.72728 0,0.4 -0.49091,0.72727 -1.09091,0.72727 -0.6,0 -1.09091,-0.32727 -1.09091,-0.72727 z m 11.65484,-6.53403 c -0.70371,-0.43491 -0.52938,-0.80333 0.68865,-1.45517 0.92146,-0.49315 1.90539,-0.59832 2.26189,-0.24178 0.8803,0.88029 -1.78843,2.41517 -2.95054,1.69695 z m 15.25425,-8.7387 c 0,-0.4 0.27709,-0.72727 0.61571,-0.72727 1.09528,0 5.96989,-5.16485 5.53651,-5.86611 -0.23091,-0.37364 -0.10058,-0.67935 0.28967,-0.67935 0.39033,0 0.8187,0.32322 0.95208,0.71825 0.1448,0.42903 1.04778,0.29996 2.2424,-0.3205 3.00785,-1.56223 2.42596,-0.83341 -1.81055,2.26758 -2.09578,1.53407 -4.38669,3.36195 -5.09091,4.06195 -1.41549,1.40707 -2.73491,1.67021 -2.73491,0.54545 z m -19.63636,-4.72727 c -0.73004,-0.87965 -0.71207,-1.08899 0.0928,-1.08098 1.85629,0.0185 4.27084,0.88314 4.27084,1.52944 0,1.06865 -3.39404,0.71984 -4.36364,-0.44846 z m 37.81818,-11.27273 c 0,-0.80808 0.48487,-1.45454 1.09091,-1.45454 1.22407,0 1.27324,0.1332 0.64945,1.75869 -0.62356,1.62502 -1.74036,1.42985 -1.74036,-0.30415 z M 909.2727,584.2456 c -1.63556,-0.65997 -0.96865,-1.58285 3.09091,-4.27746 2.2,-1.46027 4.00254,-2.86868 4.00567,-3.12979 0.0102,-0.83162 3.69622,-2.22212 4.78415,-1.80464 0.57578,0.22095 1.45178,0.0681 1.94669,-0.33971 1.05985,-0.8733 7.95789,-2.14255 11.08167,-2.03904 2.70902,0.0898 3.56844,1.45301 1.09091,1.73044 -4.06029,0.45468 -5.09091,0.93159 -5.09091,2.35571 0,1.16166 -0.49302,1.44069 -2.54545,1.44069 -1.77775,0 -2.54546,-0.329 -2.54546,-1.09091 0,-1.44143 -0.71825,-1.38121 -1.84109,0.15437 -0.76349,1.04413 -1.09658,1.0909 -2.06211,0.28962 -0.98654,-0.81876 -1.27418,-0.68634 -2.00807,0.92446 -0.58371,1.28113 -1.63215,2.02559 -3.29084,2.33677 -1.33883,0.25116 -2.43425,0.74751 -2.43425,1.10299 0,0.35549 -0.49091,0.64634 -1.09091,0.64634 -0.6,0 -1.09091,0.49091 -1.09091,1.09091 0,1.12069 -0.41738,1.24784 -2,0.60925 z m 28.90909,-7.51834 c 0,-0.8 0.12545,-1.45455 0.27884,-1.45455 0.1533,0 0.44996,0.65455 0.65912,1.45455 0.20924,0.8 0.0838,1.45454 -0.27876,1.45454 -0.36255,0 -0.6592,-0.65454 -0.6592,-1.45454 z m -5.09091,0 c 0,-0.4 0.32727,-0.72728 0.72727,-0.72728 0.4,0 0.72728,0.32728 0.72728,0.72728 0,0.4 -0.32728,0.72727 -0.72728,0.72727 -0.4,0 -0.72727,-0.32727 -0.72727,-0.72727 z m 5.48582,-2.85846 c -0.63076,-1.02064 1.32814,-2.08733 2.82953,-1.54076 0.77345,0.28156 1.10072,0.68156 0.72727,0.8889 -1.684,0.93488 -3.20909,1.2144 -3.5568,0.65186 z m 9.43062,-0.78977 c 0.2512,-0.40652 0.76145,-0.55085 1.13381,-0.32071 1.00873,0.62344 0.82066,1.05984 -0.4568,1.05984 -0.62363,0 -0.92829,-0.33261 -0.67701,-0.73913 z m 3.99265,0.0119 c 0,-0.4 0.32727,-0.72727 0.72727,-0.72727 0.4,0 0.72728,0.32727 0.72728,0.72727 0,0.4 -0.32728,0.72727 -0.72728,0.72727 -0.4,0 -0.72727,-0.32727 -0.72727,-0.72727 z"
         id="path851"
         sodipodi:nodetypes="ssssssssssssssssssssssssssssssssssssscssssssssssssssssssssssssssssssssssssssssssscssssssssssssssssssssssssssssssssssssssssssssssssssssssssssssssssssssssssssssssssssssssssssssssssssssssssssssssssssssssssssssssssssssssssssssssssssssssssssssssssssssssssssssssssssssssssssssssssssssssssssssssssssssssssssssssssssssssssssssssssssssssssssssssssssscssssssssssssssssssssssssssssssssssssssssssssssssssssssssssssssssssssssssssssssssssssssssssssssssssssssssssssssssssssssssssssssssssssssssssss" />
      <path
         style="fill:#000000;stroke-width:0.765318"
         d="m 523.81466,742.2014 c 0,-0.61423 1.29608,-5.3983 2.88023,-10.63128 2.53363,-8.36958 33.50658,-109.48895 43.83389,-143.10757 2.10127,-6.84012 4.33867,-12.88792 4.97214,-13.43953 1.31471,-1.14496 30.48854,-1.45181 32.08545,-0.33749 0.86956,0.60679 2.3112,5.18363 12.17396,38.65021 2.27595,7.72272 6.39356,21.62362 9.15022,30.8909 2.75669,9.26725 8.80126,29.66727 13.43235,45.33337 4.63111,15.6661 10.03679,33.89974 12.01257,40.51921 1.97577,6.61948 3.36399,12.31389 3.08483,12.65426 -0.27914,0.34037 -7.21823,0.52089 -15.42019,0.40117 l -14.91264,-0.21765 -4.96302,-16.84959 c -2.72963,-9.26725 -5.26845,-17.66195 -5.64168,-18.65488 l -0.67875,-1.8053 h -24.74573 c -18.93434,0 -24.91118,0.23553 -25.45005,1.00295 -0.38739,0.55162 -3.07403,9.03658 -5.97032,18.85548 l -5.26596,17.85252 h -15.28865 c -12.57537,0 -15.28865,-0.1982 -15.28865,-1.11678 z m 84.6782,-66.19226 c 0,-0.8335 -1.13687,-5.43705 -2.52625,-10.2301 -1.38945,-4.79306 -4.96017,-17.30306 -7.93486,-27.8 -5.09632,-17.98359 -5.96033,-20.57644 -6.58512,-19.76228 -0.70078,0.91319 -17.26304,56.22454 -17.26304,57.65181 0,1.62616 0.30945,1.65603 17.15463,1.65603 16.33116,0 17.15464,-0.0728 17.15464,-1.51546 z m 62.3904,66.32312 c -0.19483,-0.56099 -0.26929,-28.09965 -0.16549,-61.19704 l 0.18878,-60.17705 10.94977,-0.23001 c 6.02237,-0.12648 11.60674,-0.0487 12.40973,0.17295 1.08549,0.29958 1.91213,2.00496 3.22273,6.64888 2.45042,8.68249 2.6008,8.81721 6.035,5.40701 4.0037,-3.97569 10.26323,-8.2534 15.49911,-10.59187 4.86762,-2.17398 15.64058,-3.29323 21.84874,-2.26997 l 3.39837,0.56016 v 15.46663 15.46664 l -12.59224,-0.0422 c -16.49597,-0.0551 -21.14809,1.40857 -27.83453,8.75801 l -3.35866,3.69161 -0.18928,39.46045 -0.18935,39.46046 -14.43422,0.21762 c -11.14956,0.16808 -14.51479,-0.0145 -14.78846,-0.80237 z m 118.10785,-0.55867 c -11.52215,-4.31622 -16.78913,-14.12514 -18.39612,-34.25992 -0.41827,-5.24088 -0.76386,-21.31452 -0.76801,-35.71921 l -0.008,-26.19033 -1.99038,-0.54907 c -1.09469,-0.30199 -4.95448,-0.44533 -8.57733,-0.31854 l -6.58693,0.23053 -0.20579,-8.92072 -0.20578,-8.92074 8.23562,-2.99052 c 4.52955,-1.6448 8.63009,-3.33278 9.11232,-3.7511 0.48215,-0.4183 1.07972,-2.44609 1.32791,-4.50617 0.24828,-2.06009 0.89263,-6.6341 1.43202,-10.16448 0.5393,-3.5304 1.39828,-9.40609 1.90868,-13.0571 l 0.9281,-6.6382 12.09293,0.21931 12.093,0.21933 0.19701,17.05016 0.19703,17.05017 h 12.41419 12.41427 l -0.20155,12.15129 -0.20148,12.15131 -11.31475,-0.13143 c -6.22312,-0.0723 -11.74378,0.18015 -12.26805,0.56096 -0.76342,0.55446 -0.9073,6.75045 -0.72233,31.10701 0.30506,40.16167 -0.009,39.26647 15.65533,44.66849 l 7.52673,2.59572 0.0139,9.82892 0.0139,9.82892 -15.14718,-0.0562 c -12.52866,-0.0466 -15.80804,-0.30383 -18.97004,-1.48832 z"
         id="path862" />
    </g>
  </g>
  <g
     inkscape:groupmode="layer"
     id="layer1"
     inkscape:label="art"
     transform="translate(-1839.7294,-886.38815)">
    <path
       style="fill:#000000;stroke-width:0.727273"
       d="m 2265.5476,1118.2755 c -1.6,-0.7317 -5.0364,-2.3078 -7.6364,-3.5023 -2.6,-1.1945 -5.7091,-2.5415 -6.9091,-2.9933 -2.989,-1.1254 -14.5789,-3.0459 -18.3985,-3.0488 h -3.1257 l -1.7953,-2 -2.8763,-4.0977 1.2748,4.2795 0.1938,2.1819 -2.5455,0.1955 c -1.4,0.1074 -5.9615,0.71 -10.1366,1.3389 l -7.5913,1.1436 -4.4087,-0.4632 c -14.1257,-1.4842 -23.5293,-7.7179 -25.1861,-16.6959 l -0.5249,-2.8447 1.2992,-3.0308 1.2991,-3.0309 3.0645,-2.6231 c 1.6855,-1.4427 5.2393,-3.5038 7.8974,-4.5802 l 4.8329,-1.9572 8.4434,-0.3671 8.4434,-0.3671 0.5086,0.8229 c 0.2797,0.4526 1.3893,0.824 2.4657,0.8254 2.5596,0 11.556,3.6931 17.1576,7.0371 2.4397,1.4565 6.6171,4.5592 9.283,6.8952 2.666,2.3358 5.1018,4.247 5.4131,4.247 0.5205,0 10.5698,9.3883 19.7244,18.4271 3.4406,3.3971 4.7438,5.5996 3.288,5.5569 -0.3,-0.01 -1.8545,-0.6146 -3.4545,-1.3464 z m -41.157,-18.2079 c -1.1645,-3.8867 -1.7328,-3.3184 -0.6612,0.6612 0.4526,1.6807 0.6512,1.377 0.8526,1.1756 0.2015,-0.2015 0.3005,-0.1952 -0.1914,-1.8368 z m -2.1157,-7.6595 c 0,-0.1764 -0.3273,-0.523 -0.7273,-0.7702 -0.4,-0.2472 -0.7273,-0.1029 -0.7273,0.3207 0,0.4236 1.8975,5.1444 2.2975,5.1444 0.4,0 -0.8429,-4.5185 -0.8429,-4.6949 z m -1.4546,-3.3157 c 0,-0.4 -0.3272,-0.7272 -0.7272,-0.7272 -0.4,0 -0.7273,0.3272 -0.7273,0.7272 0,0.4 1.1685,2.1293 1.5685,2.1293 0.4,0 -0.114,-1.7293 -0.114,-2.1293 z m -1.4545,-2.8661 c -0.1212,-0.3564 -0.4683,-0.7414 -0.7273,-1.1339 l -1.1199,-1.6972 c -0.6875,-0.042 -0.1887,-0.093 0,1.1338 0.095,0.6164 1.2807,3.6714 1.6807,3.6714 0.4,0 0.8938,0.1648 0.1665,-1.9741 z m -3.5546,-6.0702 -1.6752,-2.6952 0.8661,3.0012 c 0.1701,0.5893 0.2387,1.3538 0.5304,1.6455 0.2916,0.2917 1.609,1.4998 1.7624,1.0398 0.1533,-0.46 -1.0383,-2.5463 -1.4837,-2.9913 z m -125.1946,23.975 c -0.188,-0.1714 -10.3236,-0.5261 -22.5236,-0.7883 -28.0587,-0.603 -55.2966,-1.6948 -66.5454,-2.6672 -4.8,-0.415 -14.1273,-0.9107 -20.7273,-1.1014 -6.6,-0.1909 -19.0364,-0.7981 -27.6364,-1.3495 -8.6,-0.5514 -18.0909,-1.041 -21.0909,-1.088 -3,-0.047 -8.0727,-0.3989 -11.2727,-0.7819 -7.4742,-0.8946 -34.5012,-2.641 -56.3636,-3.6421 l -17.0909,-0.7826 -1.8182,-0.7918 -1.8182,-0.7918 2.0826,-0.5862 c 1.1455,-0.3225 9.1637,-0.9317 17.8182,-1.354 8.6546,-0.4222 21.4628,-1.0768 28.4628,-1.4547 7,-0.3779 17.8,-0.8773 24,-1.1101 6.2,-0.2326 13.8909,-0.568 17.0909,-0.7454 10.5939,-0.5869 20.9522,-1.0577 32.3637,-1.4712 6.2,-0.2246 14.7091,-0.5497 18.9091,-0.7224 52.7712,-2.1693 109.2593,-3.3387 110.3144,-2.2835 0.2015,0.2014 -0.046,3.2782 -0.5495,6.8371 l -0.9159,6.4709 0.7645,4.6737 c 0.4205,2.5704 0.7197,4.7288 0.6649,4.7962 -0.2988,0.3683 -3.8295,0.9976 -4.1185,0.7342 z m 13.3804,-0.4835 -1.5506,-0.6267 -0.8937,-3.7253 -0.8937,-3.7253 0.4282,-4.8753 c 0.2356,-2.6814 0.696,-6.0207 1.0232,-7.4207 l 0.595,-2.5455 5.0575,0.2169 c 2.7816,0.1193 8.1665,0.5219 11.9665,0.8947 7.6907,0.7546 9.5477,0.8904 34.9091,2.5528 9.8,0.6424 18.07,1.4125 18.3778,1.7113 0.3077,0.2988 0.1291,1.8298 -0.3969,3.402 l -0.9565,2.8587 0.4732,3.6363 c 0.2603,2 0.4348,3.695 0.3879,3.7666 -0.1328,0.2025 -9.6894,0.8517 -24.4309,1.6595 -31.1376,1.7061 -40.8642,2.3055 -41.6809,2.5684 -0.4756,0.153 -1.5623,-0.01 -2.4152,-0.3484 z m 79.3196,-187.70205 0.4322,-9.5242 -10.0194,-0.4422 -8.9091,-0.2042 c 0.053,4.7758 -0.1138,9.7093 -0.3117,14.2755 l -0.1532,5.3264 -9.8236,0.079 h -9.3478 v -9.8182 -9.8182 h 9.7971 9.797 l 0.203,-9.6363 0.2029,-9.795 9.4545,0.1586 h 9.9304 l -0.3527,10.4293 -0.4674,9.445 2.0476,0.1485 c 0.9176,0.067 5.2876,-0.038 9.3876,-0.033 l 7.4545,0.01 c -0.3,6.8487 -0.3533,13.8729 -0.6077,19.6363 h -9.6524 -9.3352 z"
       id="path891"
       sodipodi:nodetypes="cssccccccsscsscccsscccscsssscccsssssssssssssssscsssccssscsssssssscccsssscscsccscsccccsscssssscsssscccccccccccccccccccssccccc" />
  </g>
</svg>
